
        <svg xmlns="http://www.w3.org/2000/svg" xmlns:xlink="http://www.w3.org/1999/xlink" version="1.1" width="3273.348519362187" 
        height="1165.3345335264933" viewBox="0 -13.66742596810934 3273.348519362187 1165.3345335264933">
			
			<g transform="scale(13.66742596810934) translate(10, 10)">
				<defs id="SvgjsDefs9413"><linearGradient id="SvgjsLinearGradient9420"><stop id="SvgjsStop9421" stop-color="#2d388a" offset="0"></stop><stop id="SvgjsStop9422" stop-color="#00aeef" offset="1"></stop></linearGradient></defs><g id="SvgjsG9414" featureKey="symbolFeature-0" transform="matrix(2.0082388553027632,0,0,2.0082388553027632,155.23635471510576,-1)" fill="#393e46"><g xmlns="http://www.w3.org/2000/svg" display="none"><rect x="-120.5" y="-4.833" display="inline" fill="#393e46" width="399.5" height="197.667"></rect></g><g xmlns="http://www.w3.org/2000/svg"><polygon points="22.34,11.591 29.669,0.164 28.34,0.164 21.011,11.591  "></polygon><path d="M27.286,5.479c-0.449,0.599-0.672,1.49-0.672,2.673c0,1.157,0.229,2.045,0.69,2.665c0.461,0.62,1.12,0.93,1.976,0.93   c0.892,0,1.566-0.304,2.027-0.911C31.768,10.23,32,9.335,32,8.152c0-1.157-0.241-2.041-0.72-2.654   c-0.479-0.612-1.145-0.918-2-0.918C28.401,4.58,27.735,4.88,27.286,5.479z M30.401,6.171c0.241,0.43,0.361,1.09,0.361,1.981   c0,0.901-0.12,1.57-0.361,2.005c-0.241,0.435-0.615,0.653-1.12,0.653c-0.506,0-0.87-0.22-1.093-0.66   c-0.223-0.44-0.334-1.106-0.334-1.997s0.111-1.552,0.334-1.981c0.223-0.43,0.587-0.645,1.093-0.645   C29.786,5.526,30.16,5.741,30.401,6.171z"></path><path d="M21.319,7.175c0.892,0,1.568-0.304,2.029-0.911c0.461-0.607,0.691-1.505,0.691-2.693c0-1.141-0.235-2.022-0.705-2.642   C22.864,0.31,22.192,0,21.319,0c-0.88,0-1.544,0.3-1.992,0.899s-0.673,1.49-0.673,2.673c0,1.162,0.233,2.053,0.7,2.673   C19.82,6.865,20.475,7.175,21.319,7.175z M20.234,1.587c0.223-0.438,0.584-0.657,1.084-0.657c0.988,0,1.482,0.881,1.482,2.642   c0,1.772-0.494,2.658-1.482,2.658c-0.5,0-0.861-0.221-1.084-0.664C20.011,5.122,19.9,4.458,19.9,3.572   C19.9,2.686,20.011,2.024,20.234,1.587z"></path><path d="M4.91,29.106H3.232V32h19.535v-2.894H21.09v-1.091H4.91V29.106z M5.91,29.016h14.18v1.091h1.678V31H4.232v-0.894H5.91   V29.016z"></path><path d="M16.617,18.773v8.084h3.644v-8.084H16.617z M19.261,25.857h-1.644v-6.084h1.644V25.857z"></path><path d="M11.178,18.773v8.084h3.645v-8.084H11.178z M13.822,25.857h-1.645v-6.084h1.645V25.857z"></path><path d="M5.739,18.773v8.084h3.644v-8.084H5.739z M8.383,25.857H6.739v-6.084h1.644V25.857z"></path><path d="M13,13.101c-0.736,0-1.335,0.599-1.335,1.335s0.599,1.335,1.335,1.335s1.335-0.599,1.335-1.335S13.736,13.101,13,13.101z    M13,14.771c-0.185,0-0.335-0.15-0.335-0.335s0.15-0.335,0.335-0.335s0.335,0.15,0.335,0.335S13.185,14.771,13,14.771z"></path><path d="M13,10.068L2.87,17.613h20.26L13,10.068z M13,11.315l7.112,5.298H5.888L13,11.315z"></path></g><g xmlns="http://www.w3.org/2000/svg" display="none"><g display="inline"><path d="M27.286,5.479c-0.449,0.599-0.672,1.49-0.672,2.673c0,1.157,0.229,2.045,0.69,2.665c0.461,0.62,1.12,0.93,1.976,0.93    c0.892,0,1.566-0.304,2.027-0.911C31.768,10.23,32,9.335,32,8.152c0-1.157-0.241-2.041-0.72-2.654    c-0.479-0.612-1.145-0.918-2-0.918C28.401,4.58,27.735,4.88,27.286,5.479z M30.401,6.171c0.241,0.43,0.361,1.09,0.361,1.981    c0,0.901-0.12,1.57-0.361,2.005c-0.241,0.435-0.615,0.653-1.12,0.653c-0.506,0-0.87-0.22-1.093-0.66    c-0.223-0.44-0.334-1.106-0.334-1.997s0.111-1.552,0.334-1.981c0.223-0.43,0.587-0.645,1.093-0.645    C29.786,5.526,30.16,5.741,30.401,6.171z"></path><path d="M21.319,7.175c0.892,0,1.568-0.304,2.029-0.911c0.461-0.607,0.691-1.505,0.691-2.693c0-1.141-0.235-2.022-0.705-2.642    C22.864,0.31,22.192,0,21.319,0c-0.88,0-1.544,0.3-1.992,0.899s-0.673,1.49-0.673,2.673c0,1.162,0.233,2.053,0.7,2.673    C19.82,6.865,20.475,7.175,21.319,7.175z M20.234,1.587c0.223-0.438,0.584-0.657,1.084-0.657c0.988,0,1.482,0.881,1.482,2.642    c0,1.772-0.494,2.658-1.482,2.658c-0.5,0-0.861-0.221-1.084-0.664C20.011,5.122,19.9,4.458,19.9,3.572    C19.9,2.686,20.011,2.024,20.234,1.587z"></path><polygon points="22.34,11.591 29.669,0.164 28.34,0.164 21.011,11.591   "></polygon><polygon points="10.976,8.397 0,16.572 21.951,16.572   "></polygon><rect x="0.299" y="28.098" width="21.354" height="3.902"></rect><rect x="14.997" y="17.833" width="3.903" height="9"></rect><rect x="9.024" y="17.833" width="3.902" height="9"></rect><rect x="3.051" y="17.833" width="3.903" height="9"></rect></g></g></g><g id="SvgjsG9415" featureKey="nameLeftFeature-0" transform="matrix(1.9007391227505699,0,0,1.9007391227505699,-1.1404428392102126,11.985219131088925)" fill="#393e46"><path d="M2.5 8.22 q0.24 0.6 1.04 1.7 q0.8 1.12 1.16 1.74 t0.52 1.29 t0.16 1.71 l0 3.04 q0 2.3 -2.24 2.3 l-0.3 0 q-1.2 0 -1.72 -0.61 t-0.52 -1.69 l0 -4.66 l1.66 0 l0 4.44 q0 0.4 0.15 0.63 t0.57 0.23 t0.58 -0.23 t0.16 -0.63 l0 -3.06 q0 -0.92 -0.25 -1.5 t-1.05 -1.7 q-0.8 -1.1 -1.16 -1.74 t-0.51 -1.32 t-0.15 -1.72 l0 -3.08 q0 -1.1 0.52 -1.7 t1.72 -0.6 l0.3 0 q2.24 0 2.24 2.3 l0 4.7 l-1.66 0 l0 -4.48 q0 -0.4 -0.16 -0.63 t-0.58 -0.23 t-0.57 0.23 t-0.15 0.63 l0 3.08 q0 0.96 0.24 1.56 z M6.5 20 l0.98 -18.68 l2.82 0 l0.98 18.68 l-1.54 0 l-0.2 -3.9 l-0.28 0.4 q-0.52 0.72 -0.76 1.16 t-0.32 0.85 t-0.12 1.11 l-0.02 0.38 l-1.54 0 z M9.14 13.52 q0.18 -0.5 0.18 -1.42 l-0.44 -8.28 l-0.58 11.14 q0.66 -0.94 0.84 -1.44 z M14.14 1.3200000000000003 l0.72 11.94 l0.74 -11.94 l1.66 0 l-1.6 18.68 l-1.66 0 l-1.52 -18.68 l1.66 0 z M20.119999999999997 3 l0 6.82 l1.48 0 l0 1.68 l-1.48 0 l0 6.82 l1.48 0 l0 1.68 l-3.14 0 l0 -18.68 l3.14 0 l0 1.68 l-1.48 0 z M31.58 3.3599999999999994 l0 14.34 q0 2.3 -2.24 2.3 l0.88 0 l-1.18 0 q-1.2 0 -1.72 -0.61 t-0.52 -1.69 l0 -14.34 q0 -1.1 0.52 -1.7 t1.72 -0.6 l0.98 0 l-0.68 0 q2.24 0 2.24 2.3 z M29.919999999999998 3.5799999999999983 q0 -0.4 -0.16 -0.63 t-0.58 -0.23 t-0.57 0.23 t-0.15 0.63 l0 13.9 q0 0.4 0.15 0.63 t0.57 0.23 t0.58 -0.23 t0.16 -0.63 l0 -13.9 z M37.56 1.3200000000000003 l0 18.68 l-1.62 0 l-1.58 -10.26 l0 10.26 l-1.58 0 l0 -18.68 l1.58 0 l1.58 10.1 l0 -10.1 l1.62 0 z"></path></g><g id="SvgjsG9416" featureKey="nameRightFeature-0" transform="matrix(1.6133310482387178,0,0,1.6133310482387178,82.6807221639789,8.321068971250119)" fill="url(#SvgjsLinearGradient9420)"><path d="M12.96 6.82 c-0.1 0.02 -0.04 0.06 0.02 0.08 c0.06 -0.02 -0.04 -0.04 -0.02 -0.08 c0.04 -0.04 0.1 -0.02 0.16 0 c0 0.04 -0.04 0.04 -0.02 0.1 c-0.1 0.04 -0.18 -0.04 -0.22 0.04 c0.04 0 0.18 0.12 0.22 0 c0.04 0.04 0.08 0.06 0.1 0.12 c-0.16 -0.06 -0.4 0 -0.46 -0.14 c0.04 0 0.08 0.04 0.12 0 c-0.02 -0.1 -0.14 -0.02 -0.2 0.02 c-0.06 0 -0.02 -0.1 0.04 -0.08 c-0.04 -0.08 -0.28 -0.02 -0.38 0 c0 0.04 0.14 0.06 0.08 0.08 c-0.1 0.06 -0.1 -0.12 -0.24 -0.1 c-0.04 0.06 0.08 0 0.04 0.08 c-0.1 -0.04 -0.36 0.1 -0.36 -0.08 c-0.08 0 -0.04 0.12 -0.1 0.14 c-0.06 -0.02 0 -0.12 -0.02 -0.14 c-0.1 0 -0.06 0.02 -0.04 0.08 l-0.16 0 c0 -0.04 0.04 -0.06 0.08 -0.04 c-0.14 -0.08 -0.34 -0.06 -0.48 0 c0.04 0.12 0.28 -0.08 0.32 0.06 c-0.18 0.02 -0.36 0 -0.44 0.1 c-0.1 -0.02 -0.22 -0.08 -0.24 0.06 c-0.12 -0.1 -0.16 0.04 -0.3 -0.04 c-0.04 0.02 -0.06 0.1 -0.08 0.12 c0.7 -0.16 1.8 -0.2 2.42 -0.14 c0.32 0.06 0.78 0.24 0.98 0.22 c0.02 0.06 0.1 0.08 0.16 0.12 c0.12 -0.02 -0.04 -0.08 0.02 -0.1 c0.1 0 0.06 0.04 0.06 0.1 c0.1 0.1 0.26 0.14 0.4 0.2 c-0.1 -0.1 -0.22 -0.16 -0.36 -0.22 c0.28 0 0.52 0.28 0.78 0.38 c0.06 -0.02 -0.06 -0.04 -0.02 -0.1 c0.02 0.02 0.06 0.04 0.12 0.02 c-0.04 -0.1 -0.12 -0.04 -0.24 -0.06 c0 -0.1 -0.08 -0.06 -0.06 -0.14 c0.04 0 0.1 0 0.08 -0.08 c0.1 0.06 0.2 0.14 0.3 0.22 c0.1 -0.14 -0.18 -0.1 -0.08 -0.2 c-0.1 -0.02 -0.2 -0.06 -0.28 -0.1 c0.04 0.08 -0.12 0.1 -0.04 0.22 c-0.06 -0.1 -0.12 -0.08 -0.14 -0.16 c0.04 -0.06 0.06 0 0.12 0.02 c0 -0.08 0.04 -0.08 0.02 -0.16 c-0.04 0 -0.06 0.04 -0.06 0.08 c-0.04 0 -0.08 -0.04 -0.12 -0.06 c-0.02 0.06 0.04 0.06 0.04 0.12 c-0.1 -0.06 -0.3 -0.04 -0.3 -0.2 c0.06 0.04 0.12 0.08 0.2 0.1 c0.08 -0.08 0 -0.12 0.14 -0.04 c0.06 -0.04 -0.1 -0.08 -0.08 -0.16 c0.14 0.08 0.3 0.1 0.34 0.28 c0.14 -0.06 0.24 0.12 0.34 0.18 c0 0.06 0 0.1 -0.04 0.1 c-0.02 0.06 0.08 0.02 0.06 0.1 c0.04 0 0.06 -0.02 0.06 -0.08 c0.72 0.58 0.96 1.36 1.22 2.34 c-0.02 0.32 0 0.82 -0.1 1.22 c-0.06 -0.1 0.04 -0.18 0 -0.3 c-0.06 0.1 -0.12 0.3 -0.06 0.42 c-0.2 0.12 -0.24 0.48 -0.3 0.7 c0.04 -0.02 0.02 -0.08 0.08 -0.06 c-0.12 0.22 -0.24 0.48 -0.44 0.68 c0.02 -0.18 0.1 -0.2 0.16 -0.36 c-0.2 0.18 -0.4 0.32 -0.5 0.58 c-0.02 0.02 0 0.02 0 0 c0.06 -0.06 0.04 0.06 0.12 0.02 c0.08 -0.08 0.08 -0.2 0.2 -0.22 c-0.06 0.18 -0.2 0.32 -0.32 0.44 c-0.02 -0.02 -0.06 -0.02 -0.06 -0.04 c-0.08 0.02 -0.12 0.08 -0.18 0.14 c0.08 0.08 0.12 -0.08 0.2 -0.08 c-0.04 0.1 -0.08 0.12 -0.14 0.12 c0.02 0.18 -0.16 0.28 -0.32 0.28 c-0.12 0.1 -0.18 0.28 -0.36 0.36 c0 -0.04 0.02 -0.04 0.02 -0.06 c-0.06 0 -0.08 0.04 -0.12 0.08 c0.08 0.04 0.24 -0.04 0.32 0.04 c-0.08 0.02 -0.18 0.08 -0.26 0.16 c0.06 -0.06 0.04 -0.14 -0.04 -0.16 c-0.02 0.02 -0.04 0.04 -0.04 0.1 c-0.1 0.04 0 -0.08 -0.08 -0.08 c-0.1 0.08 0.08 0.08 0.06 0.18 c-0.1 -0.02 -0.1 0 -0.2 0.08 c-0.1 -0.02 0.02 -0.04 0 -0.1 c-0.12 0.06 -0.22 0.16 -0.32 0.26 c0.08 0 0.06 0.12 0.14 0.14 c-0.02 0.14 -0.16 0.14 -0.26 0.2 c0 -0.1 0.08 -0.1 0.1 -0.14 c-0.06 -0.1 -0.2 0.12 -0.1 0.14 c-0.02 0.04 -0.04 0.08 -0.12 0.1 c0 -0.06 0.02 -0.06 0.02 -0.1 c-0.04 0 -0.14 0.18 -0.18 0.06 c0.08 0.02 0.06 -0.04 0.1 -0.06 c-0.08 -0.02 -0.12 0 -0.1 0.06 c-0.22 0.02 -0.34 0.3 -0.56 0.34 c-0.04 0.06 0 0.04 0 0.1 c-0.28 0.06 -0.44 0.24 -0.56 0.46 c-0.06 -0.1 -0.06 0.02 -0.16 0.02 c0 -0.04 0 -0.08 -0.02 -0.1 c-0.36 0.22 -0.76 0.46 -1.12 0.74 c-0.08 0.02 -0.06 -0.04 -0.1 -0.06 c-0.04 0.02 0.02 0.14 -0.08 0.1 l0 0.2 c0.1 0 -0.02 -0.1 0.04 -0.12 c0.06 0 0 0.12 0.04 0.14 c0.04 -0.16 0.1 0.04 0.16 -0.04 c0.04 0.08 -0.12 0.08 -0.2 0.08 c0 0.08 -0.18 0.12 -0.28 0.18 c0.06 -0.08 0.16 -0.2 0.12 -0.32 c-0.14 0 -0.12 0.14 -0.22 0.14 c0 -0.04 0 -0.06 0.02 -0.08 c-0.1 0 -0.06 0.1 -0.2 0.06 c-0.02 0.08 0.08 0.02 0.06 0.1 c-0.06 0 -0.08 0.04 -0.1 0.06 c0 0.1 0.1 0.1 0.2 0.14 c-0.1 0.12 -0.2 0.08 -0.3 0.16 c-0.06 -0.04 0.02 -0.16 0.1 -0.14 c0 -0.08 -0.04 -0.08 -0.02 -0.14 c-0.08 0.04 -0.04 0.08 -0.12 0.12 c-0.06 0 -0.06 -0.04 -0.06 -0.1 c-0.1 0.04 -0.14 0.12 -0.2 0.2 c-0.04 0.04 -0.04 -0.04 -0.08 -0.06 c-0.06 0.16 0.22 0.14 0.3 0.14 c0 0.04 -0.02 0.04 -0.02 0.08 c1.48 0.74 2.88 1.6 3.72 3.02 c0.02 0 0.04 0.02 0.06 0.04 c0.3 0.74 0.58 1.54 0.42 2.3 c-0.08 0 -0.06 0.04 -0.1 0.12 c-0.06 -0.1 -0.04 -0.3 -0.14 -0.38 c0.1 -0.04 0.04 0.08 0.1 0.08 c0.06 -0.2 -0.2 -0.44 -0.08 -0.76 c-0.04 0.12 0.08 0.24 0.04 0.36 c0.12 -0.08 -0.04 -0.36 0.02 -0.44 c-0.16 -0.34 -0.16 -0.7 -0.34 -1 c-0.02 -0.08 0.04 -0.06 0.06 -0.08 c-0.04 -0.06 -0.08 -0.1 -0.12 -0.16 c-0.06 0 0.02 0.04 0 0.08 c-0.44 -0.76 -1.04 -1.36 -1.8 -1.8 c-0.44 -0.38 -0.98 -0.64 -1.52 -0.82 c0 -0.04 -0.04 -0.06 -0.02 -0.1 c-0.24 0.06 -0.34 -0.18 -0.46 -0.1 c-0.12 -0.12 -0.34 -0.12 -0.46 -0.08 c0.04 -0.08 -0.04 -0.08 -0.06 -0.14 c-0.1 0.08 0.12 0.16 -0.02 0.2 c0.04 0.04 0.14 -0.02 0.22 -0.02 c0 0.04 -0.02 0.06 -0.04 0.06 c0.08 0.08 0.24 0.08 0.3 0.18 c0.06 0.02 0.04 -0.06 0.08 -0.08 c0.04 0.04 0.1 0.04 0.12 0.08 c0 0.08 -0.02 0 -0.08 0.02 c0.26 0.2 0.5 0.28 0.8 0.46 c-0.02 -0.08 0.1 -0.04 0.12 -0.06 c0.08 0.04 -0.08 0.08 0 0.12 c0.08 0.1 0.28 0.08 0.3 0.2 c0.08 0 -0.04 -0.06 0.02 -0.06 c0.08 0.06 0.18 0 0.24 0.08 c-0.08 0.02 -0.12 -0.04 -0.16 0 c0.08 0.1 0.14 0.2 0.32 0.18 c0.26 0.26 0.54 0.5 0.92 0.64 c0.04 0.08 0.04 0.18 0.14 0.18 c0 0 -0.02 0 -0.02 0.04 c-0.02 0 -0.04 0.02 -0.04 0.04 c0.02 0.04 0.04 0 0.04 -0.04 c0.3 0.1 0.3 0.48 0.6 0.58 c0.04 0.1 0.1 0.16 0.18 0.22 c-0.02 0.04 -0.04 0.04 -0.06 0.08 c0.1 0.1 0.18 0.22 0.22 0.38 l0.12 0 c-0.08 -0.1 -0.04 -0.18 -0.1 -0.32 c0.1 0.08 0.12 0.22 0.2 0.32 c0 0.06 -0.14 0.06 -0.16 0.02 c0.04 0.08 0.06 0.1 0.06 0.2 c0.14 -0.08 0.26 0.08 0.16 0.24 c-0.02 0 -0.04 -0.02 -0.04 -0.02 c0 -0.08 0.1 -0.14 0 -0.18 c-0.02 0.08 0 0.04 -0.06 0 c0.02 0.06 0.02 0.14 0.06 0.18 c0 0.04 0 0.06 0.02 0.1 c0 -0.04 0.06 -0.04 0.06 -0.1 c0.1 0.02 -0.02 0.14 -0.04 0.18 c0.1 0.2 0.12 0.4 0.16 0.66 c-0.06 0 -0.04 -0.1 -0.1 -0.04 s0.12 0.28 -0.06 0.28 c-0.58 -2.52 -2.66 -3.74 -4.9 -4.64 c-0.16 0.1 -0.36 0.12 -0.5 0.22 c-0.02 -0.04 -0.06 -0.06 -0.06 -0.12 c0.12 -0.02 0.2 -0.1 0.26 -0.02 c0.08 0 0.08 -0.06 0.1 -0.1 c-0.02 -0.06 -0.12 -0.04 -0.16 -0.06 c-0.08 0.08 -0.16 0.08 -0.2 0.14 c-0.1 0 -0.1 -0.1 -0.22 -0.08 c-0.04 0.04 0 0.1 -0.04 0.14 l-0.12 0 c-0.02 0.04 -0.02 0.1 -0.1 0.1 c0.12 0.14 0.24 -0.12 0.4 -0.1 l0 0.08 c-0.02 0 -0.02 0 -0.02 0.02 c0.02 0 0.02 0 0.02 -0.02 c0.04 0 0.06 -0.04 0.08 0 c-0.04 0.08 -0.16 0.08 -0.24 0.12 c-0.1 0 0 -0.04 0 -0.08 c-0.1 0 -0.1 0.1 -0.12 0.16 c-0.24 0.08 -0.72 0.06 -0.66 0.36 c-0.08 -0.02 -0.04 0.06 -0.1 0.06 c0.02 0.34 -0.2 0.62 -0.2 0.9 c-0.14 0.12 -0.1 0.46 -0.24 0.54 c0.02 0.28 -0.22 0.52 -0.2 0.84 c-0.2 0.18 -0.06 0.46 -0.26 0.68 c0 0.36 -0.28 0.76 -0.22 1.06 c-0.04 0.06 -0.06 0.12 -0.1 0.18 c-0.04 0.1 0.08 0.08 0.06 0.18 c-0.16 0.56 -0.28 1.16 -0.64 1.62 c0.04 0.2 -0.04 0.34 -0.1 0.58 c-0.2 0.02 -0.36 -0.2 -0.5 -0.2 c-0.02 -0.08 -0.04 -0.24 -0.2 -0.22 c-0.2 -0.42 0.14 -0.68 0.12 -1.06 c0.02 -0.04 0.12 -0.02 0.12 -0.04 c0.54 -1.7 0.98 -3.24 1.18 -5.1 c-0.1 -0.1 -0.3 -0.1 -0.4 -0.2 c0.02 -0.02 0.02 -0.08 0.06 -0.1 c-0.02 -0.06 -0.14 -0.04 -0.16 -0.08 c0 -0.06 0.1 -0.02 0.12 -0.06 c-0.24 -0.12 -0.46 -0.42 -0.56 -0.72 c-0.04 -0.04 -0.04 0.02 -0.12 0 c-0.42 -0.2 -0.02 -0.74 0.14 -0.94 c0.18 0 0.32 -0.18 0.48 -0.12 c0.16 -0.18 0.46 -0.12 0.68 -0.02 c0.36 -2.14 0.26 -4.58 0.1 -6.7 c-0.04 0 -0.02 0.04 -0.02 0.08 c-0.26 -0.02 -0.24 0.28 -0.44 0.34 c-0.02 0.24 -0.22 0.26 -0.28 0.46 c-0.1 -0.02 -0.12 0 -0.2 0 c-0.18 -0.2 -0.3 -0.42 -0.22 -0.8 c0.2 -0.54 0.52 -0.98 1 -1.26 c0.26 -0.22 0.64 -0.4 0.96 -0.6 c0.06 -0.02 0.06 0.02 0.12 0 c0.28 -0.14 0.62 -0.24 0.94 -0.38 c0.72 -0.36 1.5 -0.56 2.28 -0.8 c0.02 -0.02 0.1 -0.02 0.14 -0.02 c0.82 -0.14 1.66 -0.14 2.56 0.02 c0.02 0.08 -0.1 0.04 -0.08 0.12 c-0.2 -0.06 -0.28 -0.06 -0.56 -0.04 c0.06 0.12 0.26 0.02 0.36 0.12 c0 0.02 0.02 0.02 0.04 0.04 z M12.1 6.5600000000000005 c-0.06 0.08 0.08 -0.06 0 0 l0 0 z M11.620000000000001 6.58 c-0.28 0.14 -0.44 -0.04 -0.68 0.14 c-0.06 -0.02 -0.14 -0.02 -0.2 -0.04 c-0.08 0.06 -0.16 0.04 -0.24 0.12 l0 -0.08 c-0.14 0.04 -0.16 0.08 -0.28 0.1 c0.04 0.26 0.52 -0.12 0.68 0.04 c0 -0.02 -0.02 -0.04 -0.02 -0.06 c0.1 -0.04 0.1 -0.02 0.18 0.02 c0.02 -0.02 0 -0.06 0.02 -0.08 c0.38 0.02 0.98 -0.08 1.46 -0.02 c-0.02 -0.16 -0.22 -0.06 -0.24 -0.18 c-0.14 0.18 -0.5 0.04 -0.68 0.04 z M9.719999999999999 6.92 c-0.04 0.02 0 0.1 -0.06 0.1 c-0.34 -0.04 -0.38 0.16 -0.62 0.14 c0.02 0.14 -0.18 0.04 -0.16 0.16 c0.06 0.04 0.12 -0.04 0.18 0.04 c0 -0.06 0 -0.1 0.06 -0.1 c0.36 -0.22 0.8 -0.14 1.08 -0.38 c-0.04 -0.04 -0.12 0.02 -0.16 -0.04 c-0.04 0.06 -0.2 0.08 -0.32 0.08 z M12.06 6.880000000000001 c-0.06 0.08 0.08 -0.04 0 0 l0 0 z M10.86 6.960000000000001 c0.1 0.04 0.12 0 0.24 0 c-0.02 -0.12 -0.2 -0.06 -0.24 0 z M10 7.039999999999999 c-0.02 0 -0.04 0 -0.04 0.02 c0.02 0 0.04 0 0.04 -0.02 z M10.379999999999999 7.140000000000001 c-0.02 0 -0.06 0 -0.06 0.02 c0.02 0 0.04 0 0.06 -0.02 z M9.98 7.32 c0.12 0 0.18 -0.08 0.32 -0.06 l0 -0.1 c-0.1 0.04 -0.12 0.02 -0.18 0.08 c0.04 -0.06 -0.04 -0.12 -0.04 -0.06 c0.06 0.06 -0.14 0.02 -0.1 0.14 z M6.82 15.620000000000001 c-0.06 0.08 0.08 0.16 -0.02 0.2 c0 -0.04 0 -0.08 -0.08 -0.08 c0 0.22 -0.04 0.34 -0.04 0.54 c0.16 0.02 0.24 0.06 0.38 0.06 c0.3 -0.72 0.46 -1.48 0.78 -2.22 c0.02 -0.12 0.02 -0.14 -0.02 -0.2 c0.52 -1.06 0.8 -2.34 1.24 -3.5 c0.1 0 0.1 0.06 0.18 0.04 c0.04 0 0.06 -0.04 0.12 -0.04 c0.24 0.04 0.48 0.08 0.58 0.26 c-0.02 0.02 0 0.22 0.02 0.3 c-0.34 0.84 -0.72 1.8 -1.02 2.76 c-0.18 0.2 -0.24 0.48 -0.36 0.68 c0.04 0 0.06 -0.02 0.1 -0.02 c-0.04 0.06 -0.1 0.1 -0.14 0.14 c-0.06 0.48 -0.34 0.72 -0.36 1.24 c-0.18 0.04 -0.06 0.44 -0.28 0.5 c0.06 0.08 0 0.12 0 0.22 c0.32 0.1 0.62 0.16 0.86 0.32 c0.06 -0.14 0.14 0.08 0.3 0.02 c0.06 0 -0.06 -0.1 0.02 -0.1 c0.32 -0.02 0.46 -0.2 0.76 -0.24 c0.16 -0.14 0.36 -0.26 0.6 -0.36 c0.02 -0.04 0.02 -0.1 0.08 -0.1 c0.72 -0.36 1.34 -0.8 2.04 -1.24 c0 -0.02 0 -0.06 0.02 -0.06 c0.18 -0.08 0.24 -0.26 0.44 -0.3 c0.68 -0.6 1.46 -1.24 2.06 -1.96 c0.1 -0.14 0.18 -0.3 0.3 -0.44 c0.04 -0.02 0.12 -0.04 0.16 -0.08 c0.3 -0.4 0.6 -1.22 0.54 -1.98 c-0.5 -2.04 -2.38 -2.86 -4.64 -2.68 c-0.54 0.06 -1 0.22 -1.56 0.34 c-0.72 0.26 -1.48 0.54 -2.14 0.88 c-0.26 0.12 -0.46 0.34 -0.78 0.42 c-0.1 0.14 -0.26 0.24 -0.36 0.36 c-0.04 -0.04 -0.04 0.02 -0.1 0.04 c0 0.2 0.16 0.38 0.2 0.6 c0.02 0.1 0 0.24 0 0.36 c0.04 0.34 0.1 0.7 0.12 1 c0.02 0.18 0.06 0.4 0.06 0.56 c0 0.02 -0.08 0.06 -0.08 0.08 l0.02 0.1 c0.04 0.18 0.08 0.46 0.06 0.64 c0 0.04 0.08 0.12 0.02 0.16 c-0.06 -0.02 -0.02 -0.12 -0.08 -0.1 c0.08 0.08 -0.06 0.14 0 0.18 c0 -0.02 0.08 0.04 0.1 0.04 c-0.06 0.06 -0.1 0.14 -0.14 0.24 c0.06 -0.02 0.1 -0.08 0.16 0 c0.02 0.14 -0.12 0.12 -0.1 0.26 c0 0.08 0.18 0.16 0.06 0.22 c-0.08 0 0.02 -0.14 -0.06 -0.12 c-0.08 0.24 0.12 0.32 0.08 0.56 c-0.02 0.04 -0.1 -0.06 -0.1 0.04 c-0.02 0.08 0.1 0.06 0.1 0.12 c-0.04 0.02 -0.06 0.02 -0.1 0 c0.1 0.1 0 0.14 -0.02 0.28 c0.02 0.04 0.08 0.02 0.08 0.08 c-0.06 0.02 -0.1 0.08 -0.08 0.2 c0.04 -0.04 0.12 0.08 0.02 0.12 c0.02 -0.06 0 -0.08 -0.04 -0.08 c0.02 0.22 -0.02 0.54 -0.06 0.82 c0.08 0.02 0.04 -0.08 0.1 -0.08 z M9.86 7.359999999999999 c0.04 0 0.06 -0.02 0.08 -0.06 c-0.04 0 -0.1 0 -0.08 0.06 z M8.48 7.5 c0.14 -0.04 0.26 -0.1 0.34 -0.18 c-0.12 0.04 -0.28 0.06 -0.34 0.18 z M14.82 7.539999999999999 c0 -0.06 -0.06 -0.04 -0.08 -0.06 c0 0.04 0.02 0.06 0.08 0.06 z M8.34 7.52 l0 0.04 l0.04 0 l0.02 -0.02 l0 -0.04 l-0.04 0 c0 0 0 0.02 -0.02 0.02 z M8.18 7.619999999999999 c0.06 -0.02 0.08 -0.06 0.14 -0.08 c-0.04 0 -0.06 -0.04 -0.1 -0.02 c-0.02 0.04 -0.04 0.06 -0.04 0.1 z M9.16 7.5600000000000005 c-0.02 0.02 -0.04 0 -0.04 0.04 c0 -0.02 0.04 -0.02 0.04 -0.04 z M14.52 7.619999999999999 c-0.04 0 -0.04 -0.04 -0.08 -0.02 c-0.04 0.04 0.08 0.06 0.08 0.02 z M15.08 7.82 c0.06 0.06 0.04 -0.08 0 0 c-0.04 -0.02 -0.06 -0.04 -0.12 -0.04 c-0.02 0.08 0.02 0.1 0.06 0.12 c0 -0.04 0.08 -0.02 0.06 -0.08 z M7.04 7.880000000000001 c0.04 0.04 0.12 0 0.14 -0.06 c-0.08 -0.02 -0.1 0.04 -0.14 0.06 z M7.7 7.84 c0.02 0.08 0.02 -0.08 0 0 l0 0 z M15.18 7.859999999999999 l0.04 0 l0 -0.04 l-0.04 0 l0 0.04 z M6.96 7.9399999999999995 c0.04 0.06 0.06 -0.1 0 0 l0 0 z M15.08 7.960000000000001 c0.04 -0.02 0.08 0.06 0.1 0 c-0.06 -0.02 -0.08 -0.08 -0.1 0 z M15.3 8.06 c-0.02 -0.02 -0.1 -0.06 -0.1 0 c0 0 0.08 0.04 0.1 0 z M15.46 8.3 c0 -0.08 -0.08 -0.2 -0.14 -0.16 c0.08 0.02 0.06 0.14 0.14 0.16 z M15.44 8.14 c0.02 0.02 -0.02 0 0 0 l0 0 z M15.540000000000001 8.36 c0 0.02 -0.02 0 0 0 l0 0 z M15.72 8.6 c0 -0.06 -0.02 -0.1 -0.08 -0.12 c0 0.06 0.02 0.12 0.08 0.12 z M6.66 15.42 c0.08 -0.02 0 -0.12 0 0 c-0.1 -0.22 0.08 -0.6 -0.02 -0.82 c0.02 -0.04 0.06 -0.04 0.08 0 c-0.08 -0.78 0.1 -2.2 -0.08 -3.12 c0.02 0 0 0.06 0.04 0.08 c0 -0.18 -0.04 -0.3 -0.06 -0.42 c0.02 0 0.06 0 0.06 -0.02 c-0.02 -0.06 -0.08 -0.04 -0.08 -0.12 c0 -0.06 0.04 -0.06 0.06 -0.1 c-0.12 0.04 0 -0.16 -0.04 -0.22 c-0.04 0.06 0 -0.16 -0.02 -0.22 l0.04 0 l0 -0.04 c-0.04 -0.02 -0.04 0 -0.04 0.04 c-0.08 -0.38 -0.06 -0.72 -0.16 -1.06 c0.04 0.64 0.08 1.66 0.18 2.46 c-0.02 0.04 0 0.14 -0.04 0.18 c0.1 1.3 -0.06 2.6 -0.1 3.76 c-0.06 0.16 -0.04 0.26 -0.04 0.44 c0.26 -0.1 0.12 -0.58 0.22 -0.82 z M6.640000000000001 10.18 c0.02 0.08 0.06 -0.1 0 0 l0 0 z M6.84 12.42 c-0.02 0 -0.04 0 -0.04 0.02 c0.02 0 0.04 0 0.04 -0.02 z M15.14 13.08 c0.02 -0.04 0.04 -0.06 0 -0.08 c0 0.02 -0.04 0.06 0 0.08 z M6.78 13.1 c0.06 0 0.06 -0.12 0 -0.08 l0 0.08 z M15.24 13.02 c-0.02 0 -0.04 0 -0.04 0.02 c0.02 0 0.04 0 0.04 -0.02 z M6.88 13.26 c0 0 0 -0.02 0.02 -0.02 c0 -0.02 -0.02 -0.06 -0.06 -0.04 c0.02 0.02 0 0.06 0.04 0.06 z M14.82 13.5 c0 0.02 -0.02 0 0 0 l0 0 z M14.6 13.66 c-0.02 0 -0.06 0 -0.06 0.02 c0.02 -0.02 0.04 0 0.06 -0.02 z M14.48 13.719999999999999 c0.02 0.08 0.06 -0.1 0 0 l0 0 z M14.12 13.8 c0.02 0.08 0.02 -0.1 0 0 l0 0 z M13.9 13.82 c0.02 0.1 0.02 -0.1 0 0 l0 0 z M13.94 13.82 c0.02 0.02 0 -0.02 0 0 l0 0 z M13.92 13.96 c0.04 0 0.1 0 0.1 -0.06 c-0.06 -0.02 -0.08 0.02 -0.1 0.06 z M14.14 13.92 c0.02 0 -0.02 -0.02 0 0 l0 0 z M13.82 14 c0 -0.04 -0.02 -0.06 -0.04 -0.08 c-0.02 0.04 0 0.06 0.04 0.08 z M6.82 14.02 c0.08 0.02 0.08 -0.1 0 -0.06 l0 0.06 z M13.7 14.18 l0.04 0 c0 -0.04 0 -0.06 -0.04 -0.04 l0 0.04 z M13.440000000000001 14.26 c0.04 0 0.06 -0.02 0.06 -0.06 c-0.04 0 -0.06 0.02 -0.06 0.06 z M13.52 14.3 l0.06 0 l0 -0.04 l-0.06 0 l0 0.04 z M13.6 14.280000000000001 c0.02 0.1 0.02 -0.1 0 0 l0 0 z M13.24 14.4 c0.06 0 0.08 -0.04 0.1 -0.08 c-0.06 0 -0.08 0.04 -0.1 0.08 z M13.379999999999999 14.36 c0.04 0.06 0.06 -0.1 0 0 l0 0 z M13.34 14.4 c0 0.06 -0.04 0.06 -0.02 0.14 c0.1 -0.04 0.16 -0.12 0.2 -0.22 c-0.1 0 -0.08 0.14 -0.18 0.08 z M6.78 14.4 c-0.02 0 -0.06 0 -0.06 0.02 c0.02 0 0.06 0 0.06 -0.02 z M13.1 14.440000000000001 c0.02 0.02 -0.02 0 0 0 l0 0 z M13.1 14.5 l0 0.04 l0.04 0 c0 -0.02 0 -0.02 0.02 -0.02 l0 -0.04 l-0.04 0 c0 0 0 0.02 -0.02 0.02 z M13.74 14.54 l0.04 0 l0 -0.04 l-0.04 0 l0 0.04 z M13.2 14.64 c0.06 0.02 0.04 -0.06 0.06 -0.08 l-0.06 0 l0 0.08 z M12.98 14.64 c-0.04 0.14 0.1 0 0 0 l0 0 z M12.96 14.66 c-0.02 0 -0.06 0 -0.06 0.02 c0.02 0 0.04 0 0.06 -0.02 z M13.14 14.68 c0.02 0.02 0 0 0 0 l0 0 z M13.08 14.719999999999999 c0 0 -0.02 -0.02 0 0 l0 0 z M12.86 14.76 c-0.12 0.02 -0.26 0.12 -0.36 0.24 c0.14 -0.02 0.2 -0.12 0.3 -0.16 c0.06 0 0.06 0.06 0.06 0.12 c0.08 -0.02 0.06 -0.14 0.18 -0.12 c0 0.02 -0.04 0.02 -0.04 0.04 c0.04 0.02 0.14 -0.06 0.04 -0.04 l0 -0.08 c-0.08 0 -0.14 0.1 -0.18 0 c0 -0.04 -0.02 0 0 0 z M12.780000000000001 14.96 c-0.08 0.02 -0.12 0.06 -0.14 0.14 c0.06 -0.04 0.14 -0.04 0.14 -0.14 l0.02 0 c0 -0.02 0.02 -0.02 0.02 -0.02 l0 -0.06 c-0.04 0 -0.04 0.04 -0.04 0.08 z M12.4 15.08 l0.04 0 l0 -0.06 l-0.04 0 l0 0.06 z M12.54 15.08 c0.02 0 -0.02 -0.02 0 0 l0 0 z M12.16 15.440000000000001 c-0.04 -0.04 -0.1 -0.04 -0.08 0.04 c0.04 0 0.06 -0.02 0.08 -0.04 c0.16 -0.04 0.36 -0.2 0.36 -0.32 c-0.02 0.06 -0.1 0.04 -0.12 0.1 c-0.02 -0.02 -0.04 -0.06 -0.02 -0.1 c-0.08 0 -0.2 0.06 -0.12 0.1 c0 -0.04 0.02 -0.06 0.06 -0.04 c0 0.08 0.04 0.1 -0.02 0.14 c-0.02 -0.14 -0.04 0.04 -0.08 0.04 c-0.02 0 -0.1 -0.08 -0.12 -0.02 c0.04 0.02 0.1 0.06 0.06 0.1 z M12.620000000000001 15.219999999999999 c0 0.02 -0.02 -0.02 0 0 l0 0 z M11.879999999999999 15.48 c0.06 -0.04 0.14 -0.04 0.14 -0.14 c-0.06 0.02 -0.14 0.04 -0.14 0.14 z M12.4 15.36 c-0.06 0.08 0.08 -0.06 0 0 l0 0 z M11.8 15.54 c0 -0.04 0.04 -0.06 0.04 -0.08 c-0.06 -0.02 -0.1 0.06 -0.04 0.08 z M11.98 15.6 c0 -0.04 0.08 -0.02 0.06 -0.1 c-0.06 -0.02 -0.1 0.08 -0.06 0.1 z M12.06 15.620000000000001 c0.08 0 0.1 -0.06 0.14 -0.12 c-0.06 0.02 -0.12 0.06 -0.14 0.12 z M11.58 15.7 c0.1 -0.06 0.08 -0.08 0.22 -0.1 c-0.06 -0.14 -0.3 0 -0.22 0.1 z M11.34 15.74 c-0.06 0.04 0.04 0.04 -0.02 0.06 c-0.08 0.02 -0.22 0 -0.24 0.18 c0.18 -0.08 0.28 -0.2 0.44 -0.2 c0.02 -0.06 0.02 -0.12 -0.04 -0.12 c0 0.08 -0.1 0.06 -0.14 0.08 z M11.04 15.82 c0.02 0.02 0 0 0 0 l0 0 z M11.56 15.82 c-0.06 0.08 0.08 -0.04 0 0 l0 0 z M10.879999999999999 15.92 c0.04 0 0.06 -0.02 0.06 -0.04 c-0.04 0 -0.06 0.02 -0.06 0.04 z M10.98 16.06 c0.06 0.02 0.12 -0.12 0.04 -0.12 c0.02 0.08 -0.08 0.04 -0.04 0.12 z M11.32 16.04 c0 -0.04 0.06 -0.02 0.06 -0.06 c-0.06 -0.04 -0.14 0.04 -0.06 0.06 z M10.92 16.06 c0.02 0.02 0 0 0 0 l0 0 z M11.16 16.1 c-0.02 0 0 0.02 0 0 c0.04 -0.02 0 -0.04 0 0 z M10.440000000000001 16.38 c0.16 -0.06 0.42 -0.14 0.42 -0.28 c-0.12 0.12 -0.34 0.12 -0.42 0.28 z M11.06 16.16 c0.02 0.02 0 0 0 0 l0 0 z M6.640000000000001 16.22 c-0.02 -0.02 -0.06 -0.04 -0.06 0 c-0.02 0.04 0.08 0.04 0.06 0 z M10.98 16.22 c0.02 0.06 0.06 -0.1 0 0 l0 0 z M10.46 16.259999999999998 c0.02 0.02 0 -0.02 0 0 l0 0 z M9.379999999999999 16.98 c0.52 -0.1 0.68 -0.34 1.04 -0.58 c-0.4 0.14 -0.66 0.42 -1.04 0.58 z M10.5 16.5 c0 0.02 -0.02 -0.02 0 0 l0 0 z M10.68 16.5 c-0.02 0 -0.04 0 -0.04 0.02 c0.02 0 0.04 0 0.04 -0.02 z M10.66 16.62 c0.02 0.02 -0.02 -0.02 0 0 l0 0 z M9.48 16.68 c0.02 0 -0.02 -0.02 0 0 l0 0 z M8.34 16.7 c0.02 0 -0.02 -0.02 0 0 l0 0 z M8.52 16.72 c0.06 0.1 0.02 -0.06 0 0 l0 0 z M10.120000000000001 16.740000000000002 c0.02 0.02 0 0 0 0 l0 0 z M9.42 16.759999999999998 c0.02 0.02 0 0 0 0 l0 0 z M8.22 17 c-0.06 0.08 0.08 -0.06 0 0 l0 0 z M9.6 17.06 l0.04 0 l0 -0.06 l-0.04 0 l0 0.06 z M8.32 17.06 c0.02 0 -0.02 -0.02 0 0 l0 0 z M5.5600000000000005 17.3 c-0.08 -0.1 -0.3 -0.1 -0.4 0 c0.32 0.1 0.58 0.26 1 0.26 c-0.02 -0.16 0.08 -0.22 0.06 -0.4 c-0.28 0 -0.46 0.02 -0.66 0.14 z M6.26 17.56 l0.16 0 c-0.02 -0.18 0 -0.2 0.02 -0.38 c-0.24 0 -0.1 0.28 -0.18 0.38 z M6.58 17.32 c0.04 0.02 0.1 0.04 0.14 0.08 c-0.02 -0.1 0.08 -0.08 0.06 -0.18 c-0.14 0.02 -0.12 0.1 -0.2 0 l0 0.1 z M8.94 17.240000000000002 c-0.04 0.02 -0.08 -0.06 -0.1 0 c0.04 0.02 0.08 0.08 0.1 0 z M9.24 17.36 c0 -0.04 -0.02 -0.06 -0.06 -0.06 c0 0.04 0 0.08 0.06 0.06 z M6.9 17.32 c-0.02 0 -0.06 0 -0.06 0.02 c0.02 0 0.06 0 0.06 -0.02 z M6.5600000000000005 17.52 c0.06 0.02 0.06 -0.16 0 -0.12 l0 0.12 z M7.82 17.4 c-0.04 -0.02 -0.08 0 -0.08 0.02 c-0.04 0.08 0.12 0.02 0.08 -0.02 z M6.640000000000001 17.44 c0.02 0.1 0.02 -0.1 0 0 l0 0 z M7.720000000000001 17.54 c0 -0.06 -0.02 -0.1 -0.06 -0.1 c0 0.06 0.02 0.08 0.06 0.1 z M7.96 17.46 c0.06 0.1 0.02 -0.08 0 0 l0 0 z M7.58 17.52 l0.04 0 l0 -0.06 l-0.04 0 l0 0.06 z M7.9 17.64 c0.1 0 0.12 -0.04 0.2 0 c0 -0.08 0.06 -0.06 0.12 -0.06 c-0.04 -0.12 -0.28 -0.02 -0.32 0.06 z M7.54 17.740000000000002 c0.1 0.02 0.28 0 0.34 -0.1 c-0.1 0.02 -0.24 0.02 -0.34 0.1 z M8.780000000000001 17.740000000000002 c0 -0.06 -0.02 -0.08 -0.06 -0.08 c-0.02 0.04 -0.02 0.1 0.06 0.08 z M6.640000000000001 17.78 l0.04 0 l0 -0.04 l-0.04 0 l0 0.04 z M7.5 17.759999999999998 c0.02 0.08 0.04 -0.1 0 0 l0 0 z M7.96 17.759999999999998 c0.06 0.08 0.02 -0.08 0 0 l0 0 z M6.5600000000000005 17.9 c-0.02 -0.06 0.04 -0.16 -0.06 -0.14 c0 0.06 0 0.14 0.06 0.14 z M6.34 17.8 c0.02 0.1 0.02 -0.1 0 0 l0 0 z M7.62 17.88 c0.04 0 0.02 0.06 -0.02 0.04 c0.02 0.08 0.06 0.06 0 0.12 c0.14 -0.04 0.24 -0.12 0.28 -0.26 c-0.1 0.02 -0.2 0.04 -0.26 0.1 z M9.719999999999999 17.82 c0.08 0.08 0.06 -0.08 0 0 l0 0 z M5.98 17.9 c0 0.12 0.04 0.04 0.14 0.04 l0 -0.06 c-0.08 -0.02 -0.08 0.04 -0.14 0.02 z M6.3 17.94 c0 -0.06 -0.04 -0.08 -0.08 -0.06 c-0.02 0.06 0.04 0.06 0.08 0.06 z M7.42 18.02 c0.08 0 0.1 -0.04 0.1 -0.08 c-0.02 0 -0.02 -0.04 -0.04 -0.04 c0.02 0.08 -0.04 0.08 -0.06 0.12 z M10.1 17.98 c-0.02 0 -0.06 -0.02 -0.06 0.02 c0.02 0 0.06 0 0.06 -0.02 z M5.84 18.04 c0 0.02 -0.02 0 0 0 l0 0 z M6.24 18.06 l0.02 0 l0 -0.04 l-0.02 0 l0 0.04 z M6.32 18.04 c-0.06 0.08 0.08 -0.06 0 0 l0 0 z M7.5 18.1 c0.02 -0.02 0.06 0 0.04 -0.06 l-0.02 0 c0 0.02 -0.02 0.04 -0.02 0.06 z M10.34 18.16 c0.08 0.08 0.08 -0.08 0 0 l0 0 z M10.58 18.28 c0.02 -0.04 -0.06 -0.1 -0.06 -0.04 c0.04 0 0.02 0.06 0.06 0.04 z M10.74 18.26 c0.02 0.1 0.02 -0.1 0 0 l0 0 z M10.620000000000001 18.3 c0 0.02 -0.02 0 0 0 l0 0 z M7.140000000000001 18.36 c0.02 0.08 0.02 -0.1 0 0 l0 0 z M10.8 18.38 c0.04 0.08 0.04 -0.1 0 0 l0 0 z M6.140000000000001 19.22 l0.02 0 c0.02 -0.08 0 -0.12 -0.04 -0.14 c0.2 -0.06 -0.04 -0.26 0.08 -0.34 c-0.02 0.04 -0.02 0.08 0.02 0.08 c0.02 -0.12 0.04 -0.24 0.08 -0.34 c-0.08 0.02 -0.1 -0.04 -0.18 -0.02 c-0.02 0.08 0.04 0.24 -0.08 0.28 c0.06 0.56 -0.16 1.06 -0.28 1.72 c0.12 -0.04 0.04 -0.32 0.2 -0.3 c0 -0.06 -0.06 -0.04 -0.04 -0.12 c0.1 0.02 0.16 -0.12 0.1 -0.16 c-0.02 0.02 -0.04 0.14 -0.06 0.08 c0.04 -0.28 0.22 -0.58 0.18 -0.74 z M11.04 18.52 c0.02 -0.06 -0.08 -0.08 -0.1 -0.04 c0.06 0 0.04 0.06 0.1 0.04 z M6.54 18.8 c0.06 0.02 0.06 -0.12 0 -0.08 l0 0.08 z M6.92 18.76 c0.02 0.02 -0.02 0 0 0 l0 0 z M11.440000000000001 18.76 c-0.1 -0.08 -0.06 0.08 0 0 l0 0 z M6.48 18.84 c0.02 0.02 0 -0.02 0 0 l0 0 z M6.92 18.94 l0.04 0 l0 -0.06 l-0.04 0 l0 0.06 z M11.719999999999999 19.06 c0.02 0 -0.02 -0.02 0 0 l0 0 z M11.76 19.08 l0.06 0 l0 -0.04 l-0.06 0 l0 0.04 z M6.72 19.34 c0.04 0.08 0.04 -0.1 0 0 l0 0 z M12.2 19.34 c-0.02 0.02 -0.04 0 -0.04 0.04 c0.02 -0.02 0.04 -0.02 0.04 -0.04 z M12.440000000000001 19.52 c0 -0.02 -0.04 -0.04 -0.04 0 l0.04 0 z M6.640000000000001 19.64 c0 0.02 -0.02 -0.02 0 0 l0 0 z M6.6 19.88 c-0.02 0 -0.04 0 -0.04 0.02 c0.02 0 0.04 0 0.04 -0.02 z M13.58 20.2 c-0.02 0 -0.06 0 -0.06 0.02 c0.02 -0.02 0.06 0 0.06 -0.02 z M5.92 20.26 l0 0.06 l0.06 0 c0.02 -0.04 0.02 -0.06 -0.02 -0.08 c-0.02 0.02 -0.02 0.04 -0.04 0.02 z M6.44 20.3 c0.02 0 -0.02 -0.02 0 0 l0 0 z M13 20.26 c-0.02 0.14 0.1 0.02 0 0 l0 0 z M13.1 20.3 c0.02 0.08 0.02 -0.08 0 0 l0 0 z M5.9 20.38 c-0.02 0.14 0.1 0.02 0 0 l0 0 z M13.120000000000001 20.42 c-0.02 0 -0.04 0 -0.04 0.02 c0 -0.02 0.04 0 0.04 -0.02 z M13.24 20.56 l0.04 0 l0 -0.06 l-0.04 0 l0 0.06 z M5.76 20.56 c-0.02 0.06 0.12 0.1 0.12 0.02 c-0.04 -0.02 -0.08 -0.08 -0.12 -0.02 z M13.76 20.56 c-0.06 -0.1 -0.02 0.08 0 0 l0 0 z M13.8 20.74 c0.02 0.02 -0.02 0 0 0 l0 0 z M13.4 20.82 c0.02 0.02 0 -0.02 0 0 l0 0 z M13.82 20.86 c0.04 0.08 0.08 -0.02 0.02 -0.04 c0 0.02 -0.02 0.02 -0.02 0.04 z M6.34 20.9 c0.02 0 -0.02 -0.02 0 0 l0 0 z M13.94 21.1 c0.02 0.06 0 0.16 0.08 0.18 c-0.04 -0.06 0 -0.16 -0.08 -0.18 c0.02 -0.1 -0.06 0 0 0 z M5.7 21.16 c0.02 -0.04 0.04 -0.04 0.04 -0.06 c-0.04 -0.02 -0.1 0.04 -0.04 0.06 z M5.62 21.38 c0.08 0.02 0.08 -0.14 0.04 -0.18 c0.02 0.1 -0.06 0.1 -0.04 0.18 z M13.62 21.3 c0.04 0.1 0.04 -0.1 0 0 l0 0 z M5.7 21.38 l0.04 0 l0 -0.06 l-0.04 0 l0 0.06 z M13.72 21.52 c0 -0.06 -0.02 -0.1 -0.04 -0.12 c-0.02 0.06 -0.02 0.12 0.04 0.12 z M5.58 21.52 c0.04 0.1 0.04 -0.1 0 0 l0 0 z M5.66 21.52 c0.02 0.02 -0.02 -0.02 0 0 l0 0 z M13.76 21.66 c-0.02 0 0 -0.12 -0.04 -0.12 c-0.02 0.06 0.02 0.2 0.04 0.12 z M5.5600000000000005 21.78 c-0.02 0 -0.04 0 -0.04 0.02 c0.02 0 0.04 0 0.04 -0.02 z M13.76 21.88 c0 0.02 -0.02 -0.02 0 0 l0 0 z M14.02 22.08 l0.04 0 l0 -0.06 l-0.04 0 l0 0.06 z M5.44 22.240000000000002 c0.02 0.02 0 0 0 0 l0 0 z M5.4 22.36 l0.04 0 l0 -0.04 l-0.04 0 l0 0.04 z M13.379999999999999 6.699999999999999 c-0.02 0.02 -0.14 0.06 -0.14 0 c-0.02 -0.06 0.12 -0.1 0.14 -0.04 l0 0.04 z M13.16 6.699999999999999 c0.08 -0.06 -0.06 0.08 0 0 l0 0 z M13.46 6.74 c-0.02 -0.06 0.06 -0.08 0.1 -0.04 c-0.02 0.04 -0.06 0.04 -0.1 0.04 z M13.379999999999999 6.699999999999999 c0.08 0 -0.02 0.1 0 0 l0 0 z M13.58 6.720000000000001 l0 0 c0.02 0.02 -0.02 0 0 0 z M13.02 6.74 l0 0 c0.02 0.02 0 0 0 0 z M13.7 6.720000000000001 c0 0.06 0 0.1 -0.02 0.12 c-0.06 0 -0.06 -0.02 -0.1 -0.02 c0 -0.06 0.06 -0.08 0.12 -0.1 z M13.74 6.720000000000001 c0 0.02 0.08 0.04 0.06 0.12 c-0.04 0 -0.06 -0.04 -0.06 0 c0 -0.02 -0.02 -0.08 0 -0.12 z M13.46 6.74 c0 0.04 0 0.08 0.02 0.08 c-0.02 0.08 -0.1 -0.08 -0.02 -0.08 z M10.42 6.800000000000001 c0.02 -0.1 0.02 0.06 0 0 l0 0 z M13.84 6.82 c0.02 -0.04 0.06 -0.02 0.06 0 c-0.02 0.04 -0.02 0 -0.06 0 z M13.219999999999999 6.859999999999999 c0 0.04 -0.02 0.04 -0.02 0.08 c-0.08 0 -0.06 -0.1 0.02 -0.08 z M13.26 6.859999999999999 c0.08 -0.02 0.06 0.02 0.12 0.02 c-0.04 0.02 -0.04 0.1 -0.12 0.12 c0 -0.1 -0.02 -0.08 0 -0.14 z M14 6.880000000000001 c0 -0.02 0.04 -0.02 0.04 -0.02 c-0.02 0 -0.04 0 -0.04 0.02 z M14.06 6.9 c0 -0.04 0.04 -0.02 0.08 -0.02 c0 0.02 -0.04 0.02 -0.08 0.02 z M13.8 7.039999999999999 c-0.14 0.02 -0.18 -0.04 -0.4 -0.08 c0.08 -0.08 0.32 0.04 0.4 0.08 z M14.42 7.039999999999999 c-0.06 0.08 -0.1 -0.08 0 0 l0 0 z M14.12 7.0600000000000005 c0.08 -0.06 -0.06 0.08 0 0 l0 0 z M13.88 7.0600000000000005 c0.02 0.02 0.08 0 0.06 0.08 c-0.04 0 -0.08 -0.02 -0.06 -0.08 z M13.7 7.199999999999999 c-0.16 0 -0.26 -0.06 -0.38 -0.08 c0.1 -0.06 0.28 0.02 0.38 0.08 z M14.040000000000001 7.140000000000001 c0.06 0 0.1 0.02 0.1 0.1 c-0.06 -0.02 -0.12 -0.02 -0.1 -0.1 z M10.440000000000001 7.18 l0 0 c0.02 0.02 0 0 0 0 z M13.84 7.18 c0.04 -0.1 0.04 0.1 0 0 l0 0 z M14.3 7.18 c0 -0.02 0.04 -0.02 0.06 -0.02 c-0.02 0.02 -0.04 0.02 -0.06 0.02 z M13.7 7.199999999999999 l0 0 c0 0.04 0.02 0 0 0 z M8.22 7.26 l0 0 c0.02 0 -0.02 -0.02 0 0 z M14.28 7.4 c0 -0.02 0.02 -0.02 0.04 -0.02 c0 0.02 -0.02 0.02 -0.04 0.02 z M14.38 7.4 c0.02 -0.08 0.06 0.1 0 0 l0 0 z M15.2 7.66 c-0.08 0 0.02 -0.1 0 0 l0 0 z M16.32 11.22 l0 0.08 c-0.06 0 -0.04 -0.06 0 -0.08 z M16.16 11.68 c0.06 0.04 -0.04 0.12 -0.04 0.18 c-0.08 -0.06 0.04 -0.14 0.04 -0.18 z M6.640000000000001 11.92 c0.02 -0.1 0.02 0.08 0 0 l0 0 z M15.46 12.66 c0.08 -0.06 -0.06 0.08 0 0 l0 0 z M15.58 12.68 c0 0 0 -0.02 0.02 -0.02 c0 0.02 0 0.04 -0.02 0.02 z M15.38 12.76 c0.04 -0.1 0.04 0.1 0 0 l0 0 z M6.640000000000001 13.3 c0 -0.04 0.04 -0.04 0.04 0 c-0.02 0.02 -0.02 -0.02 -0.04 0 z M6.9 13.440000000000001 c0.02 -0.1 0.02 0.08 0 0 l0 0 z M6.66 13.6 c0.02 -0.1 0.02 0.1 0 0 l0 0 z M6.640000000000001 14.24 c0.02 -0.1 0.02 0.08 0 0 l0 0 z M14 14.36 l0.06 0 c0.02 0.08 -0.06 0.06 -0.12 0.08 c-0.02 -0.08 0.08 -0.02 0.06 -0.08 z M8.66 14.54 l0 0 c0.02 0.02 -0.02 0 0 0 z M13.5 14.84 c0.02 0.04 -0.04 0.04 -0.06 0.04 c-0.02 0.06 0.04 0.06 0 0.1 c-0.08 -0.02 -0.1 -0.04 -0.1 0.04 c-0.06 -0.04 -0.08 0.02 -0.12 -0.02 c0.02 -0.06 0 -0.16 0.1 -0.16 c-0.02 0.02 -0.04 0.04 -0.04 0.1 c0.06 -0.06 0.14 -0.08 0.22 -0.1 z M13.1 15.02 c0.02 -0.06 0.06 0.04 0.12 0 c-0.06 0.22 -0.36 0.28 -0.44 0.4 c-0.14 0.04 0 -0.2 0.08 -0.2 c0.02 0.08 0.28 -0.12 0.24 -0.2 z M13.02 15.059999999999999 c0 -0.04 0.06 -0.04 0.06 0 c-0.02 0.02 -0.04 -0.02 -0.06 0 z M12.879999999999999 15.18 c0.02 -0.1 0.02 0.08 0 0 l0 0 z M8.32 15.34 c0.02 -0.1 0.02 0.1 0 0 l0 0 z M6.82 15.620000000000001 c-0.08 -0.06 0.02 -0.14 0 -0.24 c0.04 0.04 0.04 0.22 0 0.24 z M12.56 15.379999999999999 c0.08 0 0.1 0.06 0.14 0.08 c-0.14 0.1 -0.3 0.32 -0.5 0.32 c0.04 -0.08 0.14 -0.04 0.08 -0.16 c0.04 0.04 0.1 0.04 0.1 -0.04 c0.1 0.04 0.16 -0.08 0.18 -0.2 z M12.42 15.54 c0.02 -0.02 0.04 -0.02 0.04 -0.04 c-0.02 0.02 -0.04 0 -0.04 0.04 z M12.16 15.780000000000001 c-0.02 0.06 -0.08 0.04 -0.08 0.12 c-0.1 0.02 -0.16 0.04 -0.14 0.16 c-0.06 0 -0.1 -0.04 -0.12 0.04 c-0.04 -0.02 -0.02 -0.06 -0.06 -0.06 c0 0.06 -0.14 0.16 -0.14 0.02 c0.1 0.02 0.16 -0.1 0.08 -0.12 c0.04 -0.04 0.2 -0.02 0.18 0.06 c0.04 -0.08 0.08 -0.14 0.14 -0.18 c0 -0.04 -0.08 0 -0.1 -0.02 c0 -0.12 0.14 -0.02 0.24 -0.02 z M6.78 15.86 c0.12 0.04 0 0.24 0.02 0.36 c-0.1 -0.08 -0.06 -0.26 -0.02 -0.36 z M11.58 16.02 c-0.02 0.06 -0.04 0.08 0.02 0.12 c-0.06 0.06 -0.14 -0.04 -0.14 -0.1 c0.02 -0.02 0.06 -0.02 0.12 -0.02 z M6.5 16.06 c0.04 -0.08 0.04 0.1 0 0 l0 0 z M11.34 16.16 c0.08 0.02 0.12 0.08 0.16 0.08 c-0.04 0.16 -0.28 0.12 -0.34 0.28 c-0.1 0 -0.08 0.06 -0.18 0.02 c0.1 -0.16 0.22 -0.16 0.42 -0.26 c0.02 -0.08 -0.1 -0.02 -0.06 -0.12 z M11.02 16.36 c0.02 0.1 -0.06 0.1 -0.14 0.12 c0.02 -0.08 0.08 -0.1 0.14 -0.12 z M10.4 16.759999999999998 c-0.02 0.06 -0.08 0.08 -0.14 0.08 c0.02 -0.06 0.04 -0.08 0.14 -0.08 z M9.9 17 c0 -0.02 0.04 -0.02 0.06 -0.02 c0 0.02 -0.04 0.02 -0.06 0.02 z M9.7 17.66 l0 0 c0 0.02 -0.02 -0.02 0 0 z M10.08 17.8 c-0.04 0 -0.08 0 -0.08 -0.04 l0.06 0 c0 0 0 0.02 0.02 0.02 l0 0.02 z M8.14 17.8 c0.06 -0.1 0.04 0.08 0 0 l0 0 z M10.08 17.8 c0.1 0 0 0.1 0 0 l0 0 z M10.54 17.92 c0 -0.02 0.04 -0.02 0.04 0 c0 0.04 -0.02 0 -0.04 0 z M10.74 17.98 c-0.02 0.02 -0.04 0.04 -0.08 0.04 c-0.02 -0.06 0.04 -0.04 0.08 -0.04 z M10.76 18 c0 -0.02 0.02 -0.02 0.04 -0.02 c0 0.02 -0.02 0 -0.04 0.02 z M11.04 18.16 l0.04 0 l0 0.06 l-0.04 0 l0 -0.06 z M11.219999999999999 18.26 c-0.04 0 -0.1 -0.02 -0.1 0.02 c-0.08 -0.06 0.1 -0.14 0.1 -0.02 z M10.86 18.26 c0 -0.04 0.04 -0.02 0.04 0 c-0.02 0.04 -0.02 0 -0.04 0 z M11.32 18.38 l0 0 c0 0.02 -0.02 -0.02 0 0 z M11.46 18.42 c0 -0.02 0.02 -0.02 0.04 -0.02 c0 0.02 -0.02 0.02 -0.04 0.02 z M11.620000000000001 18.56 c0.04 -0.1 0.04 0.08 0 0 l0 0 z M11.82 18.58 c0.02 0.08 -0.04 0.06 -0.06 0.12 c-0.06 0 -0.04 -0.16 0.06 -0.12 z M12.02 18.88 c0.06 -0.06 0.18 0.04 0.16 0.16 c-0.06 -0.06 -0.1 -0.12 -0.16 -0.16 z M7.24 18.96 l0 0 c0 0.02 -0.02 -0.02 0 0 z M12.4 19.2 c-0.08 0.02 -0.04 -0.1 -0.12 -0.08 c0.02 -0.1 0.12 0 0.12 0.08 z M6.140000000000001 19.22 c-0.02 -0.02 -0.04 -0.04 -0.04 -0.1 c0.04 0.02 0.04 0.04 0.04 0.1 z M12.46 19.22 c0.04 0 0.06 0.04 0.06 0.1 c-0.04 -0.02 -0.1 -0.06 -0.06 -0.1 z M12.82 19.56 c-0.1 -0.04 -0.18 -0.1 -0.24 -0.22 c0.14 0.04 0.18 0.16 0.24 0.22 z M12.82 19.56 c0.04 0 0.06 0.02 0.06 0.08 l-0.06 0 l0 -0.08 z M7.02 19.62 c0.08 -0.06 -0.06 0.08 0 0 l0 0 z M12.9 19.68 l0 0 c0.02 0.02 0 0 0 0 z M12.96 19.76 c0.06 -0.06 0.2 0.14 0.16 0.22 c-0.1 -0.04 -0.06 -0.2 -0.16 -0.22 z M13.2 20.02 c0.06 0.02 0.04 0.12 0.14 0.12 c0 0.06 -0.04 0.08 -0.1 0.08 c0.06 -0.08 -0.1 -0.08 -0.04 -0.2 z M13.36 20.22 c0.06 0.1 0.12 0.14 0.12 0.26 c-0.14 -0.02 -0.1 -0.16 -0.12 -0.26 z M13.64 20.46 l0 0 c0.02 0.02 0 -0.02 0 0 z M6.640000000000001 20.82 c0.08 -0.06 -0.04 0.08 0 0 l0 0 z M13.74 20.94 c-0.06 0 0 -0.1 0 0 l0 0 z M13.74 20.94 c0.04 0 -0.02 0.1 0 0 l0 0 z M13.9 21.48 l-0.08 0 c0 -0.04 0.04 -0.06 0.06 -0.08 c0.02 0 0.02 0.04 0.02 0.08 z M13.9 21.48 c0.08 0 0 0.1 0 0 l0 0 z M6.36 21.78 l0 0 c0.02 0.02 0 0 0 0 z M18.56 18.12 c0.02 0 0.02 -0.02 0.02 -0.02 c-0.02 -0.04 -0.02 0 -0.02 0.02 c-0.08 0.06 -0.24 0.1 -0.22 0.18 c-0.08 0.1 -0.2 0.1 -0.32 0.18 c-0.82 0.52 -1.86 2.24 -3.02 1.78 c-0.04 -0.14 -0.12 -0.24 -0.16 -0.36 c0 -0.1 -0.08 0.04 -0.08 -0.04 c-0.06 -0.1 -0.1 -0.2 -0.16 -0.3 c0.28 -1.4 1.04 -2.32 1.78 -3.3 c0.28 -0.22 0.62 -0.48 1.08 -0.48 c0.44 0.1 0.96 0.24 1.04 0.78 c0.04 0.3 -0.08 0.5 -0.2 0.7 c0.16 0 0.34 -0.16 0.6 -0.12 c0.36 0.14 0.42 0.88 0.16 1.14 c0.18 0.3 -0.18 0.74 -0.04 1.08 c2 -0.32 3.12 -1.74 4.34 -2.92 c-0.14 1.06 -1.22 1.6 -1.92 2.32 c-0.46 0.26 -0.8 0.5 -1.3 0.72 c0.04 0.06 0.12 -0.06 0.2 -0.04 c-0.02 0.06 -0.1 0.04 -0.1 0.1 c0.82 -0.28 1.34 -0.96 2.04 -1.28 c-0.02 -0.06 -0.08 0.02 -0.12 0 c0.04 -0.06 0.1 -0.18 0.14 -0.04 c0.06 -0.14 0.28 -0.38 0.56 -0.44 c-0.86 1.04 -1.96 1.74 -3.28 2.36 c-0.18 0.02 -0.32 -0.04 -0.5 -0.04 c-0.3 -0.1 -0.4 -0.26 -0.54 -0.52 c-0.02 -0.4 -0.04 -1.02 0.02 -1.46 z M15.38 19.5 c1.02 -0.5 1.66 -1.34 2.48 -2.04 c-0.16 -0.14 -0.06 -0.62 -0.1 -0.8 c-1.32 0.42 -1.8 1.68 -2.38 2.84 z M23.12 16.9 c0.02 0.08 0.06 -0.1 0 0 l0 0 z M23 17.04 c0.04 0.04 0.08 -0.02 0.1 -0.08 c-0.06 0.02 -0.12 0.02 -0.1 0.08 z M20.58 18.94 c-0.02 -0.04 -0.06 -0.04 -0.06 0 c-0.06 -0.02 -0.08 0.02 -0.1 0.06 c0.06 0 0.08 -0.04 0.1 -0.06 l0.06 0 c-0.04 0.08 -0.14 0.1 -0.22 0.14 c0 -0.04 0.1 -0.08 0 -0.08 c-0.04 0.08 -0.08 0.2 -0.2 0.1 c-0.02 0.06 -0.08 0.16 0 0.16 c1.08 -0.56 2.12 -1.3 2.82 -2.2 c-0.78 0.66 -1.5 1.36 -2.4 1.88 z M18.22 17.58 c-0.08 0.12 0.14 0.04 0 0 l0 0 z M18.06 17.740000000000002 c0.02 0.04 0.16 -0.04 0.08 -0.08 c0 0.06 -0.1 0 -0.08 0.08 z M17.94 17.86 c-0.06 -0.02 -0.1 0.08 -0.06 0.08 c0 -0.04 0.06 -0.02 0.06 -0.08 c0.02 0 0.02 0.02 0.04 0.02 c0.02 -0.02 0.02 -0.04 0.02 -0.08 c-0.04 0 -0.06 0.02 -0.06 0.06 z M18.06 17.92 c0 0.02 -0.02 0 0 0 l0 0 z M17.48 18.24 c-0.06 0.08 0.08 -0.06 0 0 l0 0 z M17.4 18.3 c0.02 0.02 0 0 0 0 l0 0 z M18.22 18.3 c0.12 0.04 0.02 -0.06 0 0 l0 0 z M18.12 18.38 c0.1 0.02 0 -0.08 0 0 l0 0 z M20.259999999999998 19.1 c0.02 0.02 -0.02 0 0 0 l0 0 z M15.24 19.14 c0.1 0.04 0 -0.06 0 0 l0 0 z M15.22 19.26 c-0.04 0.06 -0.14 0.18 -0.1 0.22 c0.04 -0.06 0.1 -0.1 0.1 -0.22 c0.04 0 0 -0.02 0 0 z M19.98 19.58 c0.04 -0.02 0.12 -0.02 0.14 -0.08 c-0.08 0 -0.16 0 -0.14 0.08 z M15.1 19.56 c-0.06 0.08 0.08 -0.06 0 0 l0 0 z M20.02 19.66 c0.08 -0.04 0.18 -0.04 0.2 -0.12 c-0.08 0.02 -0.16 0.04 -0.2 0.12 z M15.1 19.66 c0.04 -0.08 -0.1 -0.08 -0.1 -0.04 c0.04 0 0.06 0.04 0.1 0.04 z M23.02 17.46 c0.06 0.04 -0.02 0.12 -0.08 0.1 c0.02 -0.04 0.08 -0.04 0.08 -0.1 z M22.98 17.64 c0.02 0.08 -0.14 0.12 -0.12 0.02 c0.04 0.02 0.04 -0.04 0.12 -0.02 z M22.740000000000002 17.68 c0.02 -0.08 0.02 0.1 0 0 l0 0 z M20.5 19.36 c0 0.06 -0.08 0.04 -0.08 0.08 c-0.06 -0.02 0.04 -0.08 0.08 -0.08 z M27.28 6.0600000000000005 c-0.1 0.34 -0.08 0.78 -0.32 0.98 c-0.08 1.08 -0.6 2.12 -0.8 3.08 c0.46 0.06 1.08 0.04 1.58 0.02 c1.2 0.18 2.66 -0.08 3.84 0.58 c-0.1 0.04 -0.18 -0.02 -0.26 0.04 c-1.5 -0.54 -3.6 -0.28 -5.08 -0.5 c-0.1 0.02 -0.18 0.1 -0.2 0.22 c0 0.1 0.2 0.02 0.24 0.12 c0.02 -0.08 0.04 -0.18 0.08 -0.16 c0 0.1 0.24 0.18 0.32 0.04 c0.22 0.1 0.38 0.02 0.56 0.02 c0.06 0.02 0.04 0.1 0.08 0.14 c0.06 0 0.08 -0.02 0.08 -0.04 c0.04 0 0.02 0.04 0.04 0.04 c0.06 0 0.02 -0.08 -0.02 -0.08 c0 -0.06 0.08 0 0.08 0.04 c0.06 -0.02 -0.02 -0.08 0 -0.12 c0.24 0.3 0.66 0.06 0.94 0.2 c0.02 0 0.02 -0.02 0.02 -0.06 c0.12 0.08 0.14 -0.04 0.28 0.04 c0.06 -0.06 -0.12 -0.06 -0.12 -0.14 c0.08 0.04 0.2 0.02 0.22 0.02 c0.06 0.1 -0.04 0 -0.04 0.06 c0.26 0.18 0.62 0 0.9 0.12 c0.06 -0.02 0.1 -0.06 0.12 -0.12 c0.06 0.02 0 0.16 0.1 0.14 c0.06 -0.02 -0.04 -0.06 -0.02 -0.12 c0.06 0.08 0.18 0.14 0.14 0.24 c0.12 0 0.08 -0.04 0.08 -0.12 c0.08 0.08 0.18 -0.06 0.2 0.02 c0.06 0 0.02 -0.08 0.04 -0.12 c0.16 0.12 0.5 -0.04 0.8 0.12 c-0.2 0.06 -0.42 0.08 -0.66 0 c-0.08 0.04 -0.06 0.18 -0.18 0.16 c-0.08 0.02 -0.06 -0.08 -0.08 -0.12 c-0.06 0.14 -0.34 0.02 -0.32 0.18 c-0.1 0.02 -0.04 -0.12 -0.12 -0.12 c0 0.12 -0.06 0.06 -0.2 0.1 c0 -0.06 0.04 -0.06 0.08 -0.06 c0 -0.06 -0.14 -0.08 -0.1 0.02 c-0.06 -0.02 -0.04 -0.1 -0.14 -0.08 c-0.08 0 -0.08 0.06 -0.12 0.12 c-1.12 -0.14 -2.54 -0.1 -3.36 -0.06 c-0.1 0.04 -0.04 0.24 -0.16 0.24 c0 0.58 -0.36 1.1 -0.44 1.66 c-0.28 0.8 -0.68 1.84 -0.98 2.68 c-0.4 1.16 -1.2 1.92 -1.34 3.12 c0 0.28 0 0.52 -0.08 0.8 c0.02 0.34 0.04 0.72 -0.04 1.06 c0.02 0.96 0.1 2.06 0.76 2.62 c-0.98 -0.12 -1.2 -1.06 -1.36 -1.9 c-0.04 -0.44 -0.12 -1.08 -0.06 -1.58 c0.06 0 0.02 0.08 0.08 0.06 c0 -0.16 -0.04 -0.38 0.04 -0.48 c-0.12 0.06 -0.06 0.18 -0.1 0.26 c0 -0.36 -0.04 -0.7 0.12 -0.98 c-0.02 -0.28 0.02 -0.62 -0.16 -0.86 c0.1 -0.12 0.16 -0.28 0.28 -0.38 c0.3 -2.28 0.76 -3.96 1.32 -6.08 c-0.68 -0.12 -1.52 0.48 -2.12 0.08 c-0.1 -0.44 0 -0.94 0.5 -0.82 c0.54 -0.14 1.2 -0.14 1.9 -0.24 c0.32 -1 0.68 -2.32 1.04 -3.46 c0.38 -1.18 0.6 -2.5 1.48 -3.18 c0.78 0.06 0.9 0.94 0.68 1.7 c0.08 0.08 0.08 0.1 0.06 0.24 c0.04 0 0.02 -0.08 0.04 -0.1 c0.1 0.24 -0.18 0.44 -0.12 0.64 c-0.02 0 -0.02 -0.02 -0.06 -0.02 c-0.02 0.04 0 0.16 0.02 0.08 l0.02 0 z M26.28 5.5600000000000005 c-0.04 -0.14 -0.1 0.08 0 0 c-0.02 0.04 -0.02 0.08 -0.06 0.08 c0 -0.06 -0.02 -0.04 -0.02 0 l-0.02 0 c-0.04 0.04 -0.04 0.1 -0.02 0.16 c-0.04 0 -0.02 0.02 -0.04 0.04 l-0.02 0 c0.02 0.12 -0.12 0.22 -0.04 0.32 c0.02 -0.12 0.08 -0.18 0.06 -0.32 c0.04 0 0.02 -0.02 0.04 -0.04 l0.02 0 c0 -0.04 0 -0.06 0.02 -0.06 c-0.38 1.36 -0.9 2.96 -1.3 4.4 c0.22 0.04 0.28 -0.02 0.48 0 c0.54 -2 1.3 -3.82 1.42 -5.78 c-0.22 0.34 -0.38 0.76 -0.52 1.2 z M27.14 4.5600000000000005 c-0.08 0.08 0.08 0.08 0 0 l0 0 z M25.86 10.08 c-0.06 0.02 0.02 0.1 0 0 c0.1 -0.08 0 -0.12 -0.02 -0.2 c0.04 -0.12 0.14 -0.2 0.12 -0.36 c0.06 -0.04 0.08 0 0.14 -0.06 l0 -0.14 c-0.02 0 -0.06 0 -0.06 -0.02 c0.06 -0.12 0.04 -0.32 0.14 -0.38 c0 0.02 0 0.04 0.02 0.04 c0.02 -0.1 0.16 -0.2 0.08 -0.32 c-0.06 0.06 -0.02 0.18 -0.08 0.2 c-0.04 -0.12 0.06 -0.26 0.1 -0.36 c0.04 0 0 0.08 0.04 0.08 c0.1 -0.28 0.18 -0.46 0.24 -0.82 c-0.14 0.16 -0.14 0.6 -0.28 0.66 c0.28 -1.08 0.7 -2.2 0.84 -3.36 c0.02 0 0.02 -0.04 0 -0.04 c-0.04 -0.1 0.04 -0.12 0.06 -0.16 c-0.04 -0.02 -0.08 -0.06 -0.04 -0.1 c-0.14 0.34 -0.18 0.76 -0.22 1.1 c-0.04 0.02 -0.06 -0.02 -0.1 -0.02 c0 0.06 0.04 0.08 0.04 0.14 c-0.12 0.1 -0.28 0.52 -0.16 0.72 c-0.06 0.04 -0.08 -0.02 -0.14 0.02 c-0.22 1.16 -0.78 2.42 -0.98 3.46 c0.14 0.02 0.18 -0.08 0.24 -0.14 c0 0.04 0.02 0.04 0.02 0.06 z M26.36 5.199999999999999 c-0.02 0 0.02 0.02 0 0 c0.1 -0.04 -0.06 -0.08 0 0 z M25.92 5.359999999999999 c0.1 0.02 0 -0.08 0 0 l0 0 z M26.28 5.380000000000001 c0 0.02 -0.02 0 0 0 l0 0 z M25.88 5.4 c0.02 0.02 0 0 0 0 l0 0 z M26.92 5.460000000000001 c0.1 0.02 0 -0.08 0 0 l0 0 z M26.9 5.619999999999999 c0.02 0.1 0.02 -0.1 0 0 l0 0 z M27.26 5.68 c0.02 0 -0.02 -0.02 0 0 l0 0 z M27.240000000000002 5.699999999999999 c-0.04 0.14 0.1 0 0 0 l0 0 z M25.76 5.76 c0.02 0.02 0 0 0 0 l0 0 z M27.2 5.98 c0.04 -0.02 0.06 -0.14 0 -0.16 c0 0.08 -0.08 0.12 0 0.16 z M25.96 6.32 c0.08 0.04 0.06 -0.12 0.02 -0.12 c0.02 0.06 -0.02 0.06 -0.02 0.12 z M25.6 6.34 c-0.02 0 -0.02 0.04 -0.02 0.06 c-0.08 0.02 0.02 0.12 0 0 c0.02 0 0.02 -0.04 0.02 -0.06 c0.08 0 -0.02 -0.1 0 0 z M26.92 6.359999999999999 l0.04 0 l0 -0.04 l-0.04 0 l0 0.04 z M25.94 6.52 c0 -0.04 0.1 -0.16 0 -0.16 c0.02 0.08 -0.08 0.12 0 0.16 z M25.36 6.48 l0 0.06 c0.06 0.04 0.08 -0.08 0.02 -0.08 c0 0.02 0 0.04 -0.02 0.02 z M25.52 6.539999999999999 c0.04 0.1 0.04 -0.1 0 0 l0 0 z M27.12 6.640000000000001 c0 -0.02 0.04 -0.12 0 -0.12 c-0.02 0 -0.06 0.1 0 0.12 z M25.32 6.720000000000001 c-0.04 0.02 0 0.04 0 0 c0.04 -0.02 0.04 -0.1 0.06 -0.14 c-0.06 0 -0.06 0.08 -0.06 0.14 z M25.86 6.76 c0.02 -0.04 0.08 -0.16 0.02 -0.18 c0 0.04 -0.06 0.16 -0.02 0.18 z M26.88 6.6 c0.02 0.1 0.02 -0.08 0 0 l0 0 z M25.48 6.699999999999999 c0 0 0 -0.02 0.02 -0.02 c0 -0.02 0 -0.06 -0.04 -0.04 c0 0.02 0 0.06 0.02 0.06 z M25.44 6.92 c-0.04 -0.08 0.08 -0.16 -0.04 -0.16 c0.02 0.04 -0.02 0.16 0.04 0.16 z M26.8 6.779999999999999 l0 0.04 c0.06 0.04 0.08 -0.08 0.02 -0.06 c0 0 0 0.02 -0.02 0.02 z M25.26 6.9 c-0.02 0.02 0 0.02 0 0 l0.02 0 c-0.02 -0.08 0.04 -0.06 0.04 -0.12 c-0.08 -0.02 -0.04 0.08 -0.06 0.12 z M25.82 6.92 c0 -0.02 0.06 -0.1 0 -0.1 c0 0.02 -0.06 0.1 0 0.1 z M26.8 6.960000000000001 c0 0 0.06 -0.08 0 -0.08 c0 0 -0.06 0.08 0 0.08 z M25.240000000000002 7.039999999999999 c-0.02 -0.04 0.08 -0.08 0 -0.1 c0 0.02 -0.06 0.1 0 0.1 z M25.740000000000002 7.02 c0.1 0.02 0 -0.08 0 0 l0 0 z M26.68 7.24 c0.1 0.02 0.02 -0.12 0.12 -0.1 c-0.06 -0.06 0.06 -0.14 -0.04 -0.14 c-0.02 0.08 -0.06 0.14 -0.08 0.24 z M25.34 7.18 c0 -0.04 0.08 -0.18 0 -0.16 c0.02 0.06 -0.08 0.12 0 0.16 z M26.9 7.119999999999999 c0 -0.02 0 -0.04 0.02 -0.04 c0 -0.02 0 -0.04 -0.04 -0.04 c0 0.02 -0.02 0.06 0.02 0.08 z M25.12 7.359999999999999 c-0.08 0.04 0.08 0.06 0 0 l0.02 0 c0.02 -0.08 0.1 -0.2 0.06 -0.28 c-0.04 0.1 -0.06 0.18 -0.08 0.28 z M25.7 7.140000000000001 c0.08 0.08 0.04 -0.08 0 0 l0 0 z M25.7 7.300000000000001 c-0.02 -0.04 0.06 -0.08 0 -0.1 c0 0.02 -0.06 0.1 0 0.1 z M25.26 7.359999999999999 c-0.08 0.04 0.08 0.06 0 0 c0.08 -0.04 -0.02 -0.14 0 0 z M26.68 7.300000000000001 c0.02 0.1 0.02 -0.1 0 0 l0 0 z M25.2 7.539999999999999 c0.06 0.02 0.06 -0.04 0.06 -0.1 c-0.08 -0.02 -0.02 0.08 -0.06 0.1 z M25.62 7.5 c0.02 0.02 0 -0.02 0 0 l0 0 z M25 7.720000000000001 c0.08 -0.06 0.12 -0.14 0.08 -0.22 c-0.02 0.08 -0.06 0.12 -0.08 0.22 z M26.8 7.5600000000000005 l0.04 0 l0 -0.04 l-0.04 0 l0 0.04 z M25.6 7.6 c-0.04 0 0 0.02 0 0 c0.04 -0.02 0 -0.04 0 0 z M25.16 7.66 c0.04 0.1 0.04 -0.1 0 0 l0 0 z M26.560000000000002 7.720000000000001 c0.02 0 0 -0.02 0 0 l0 0 z M25.12 7.74 l0 0.04 c0.06 0.04 0.08 -0.08 0.02 -0.06 c0 0 0 0.02 -0.02 0.02 z M24.96 8 c-0.02 -0.08 0.16 -0.22 0.02 -0.26 c0.04 0.12 -0.1 0.2 -0.02 0.26 z M25.5 7.84 c0.02 0 0 -0.02 0 0 l0 0 z M26.7 7.859999999999999 c-0.02 0.14 0.02 -0.1 0 0 l0 0 z M25.1 7.880000000000001 l0 0 c0.04 -0.12 -0.06 0.12 0 0 z M25.08 8.04 c0 0 0 -0.02 0.02 -0.02 c0 -0.02 -0.02 -0.06 -0.06 -0.04 c0.02 0.02 0 0.06 0.04 0.06 z M24.86 8.2 c0.06 0 0.1 -0.12 0.04 -0.16 c-0.02 0.04 0 0.12 -0.04 0.16 z M25.44 8.08 c-0.02 0.14 0 -0.1 0 0 l0 0 z M24.98 8.4 c0.02 -0.06 0.08 -0.18 0.02 -0.24 c0.02 0.1 -0.08 0.2 -0.02 0.24 z M24.68 8.76 c-0.12 0.4 -0.32 1.02 -0.38 1.4 c0.14 -0.38 0.38 -1.06 0.38 -1.4 c0.08 -0.14 0.2 -0.36 0.18 -0.54 c-0.1 0.1 -0.14 0.38 -0.18 0.54 z M25.38 8.28 c-0.06 0.08 0.08 -0.04 0 0 l0 0 z M24.92 8.48 l-0.02 0 c-0.04 0.24 -0.12 0.34 -0.14 0.58 c0.08 -0.1 0.16 -0.38 0.16 -0.58 c0.04 -0.02 0 -0.02 0 0 z M25.02 8.48 c-0.02 0.14 0.02 -0.1 0 0 l0 0 z M25.32 8.48 c0 0.02 -0.02 0 0 0 l0 0 z M25.32 8.64 c-0.02 -0.02 0 -0.08 -0.04 -0.08 c-0.02 0.02 -0.02 0.08 0.04 0.08 z M25.22 8.84 c0.02 0.02 -0.02 0 0 0 l0 0 z M25.2 8.94 c0 0.02 -0.02 -0.02 0 0 l0 0 z M26.18 9.04 c0.02 0.02 0.02 0 0 0 c-0.02 -0.04 -0.04 0 0 0 z M24.44 10.16 c0.16 -0.34 0.22 -0.68 0.34 -1.06 l-0.06 0 c-0.08 0.42 -0.24 0.72 -0.28 1.06 z M25.1 9.22 c0.08 0.02 0.04 -0.08 0.06 -0.1 c-0.06 -0.02 -0.02 0.08 -0.06 0.1 z M26.1 9.28 c0.02 0 0 -0.02 0 0 l0 0 z M25.02 9.54 c-0.02 0.02 0 0.02 0 0 c0.04 -0.02 0.04 -0.06 0.06 -0.1 c-0.08 -0.02 -0.04 0.06 -0.06 0.1 z M24.96 9.82 c0 0 0.04 -0.1 0 -0.12 c0.02 0.06 -0.08 0.1 0 0.12 z M25.98 9.72 c0.02 0.02 0 0 0 0 l0 0 z M25.94 9.88 c-0.06 0.08 0.08 -0.06 0 0 l0 0 z M24.9 9.92 c-0.02 0.14 0.02 -0.1 0 0 l0 0 z M25.68 10.44 c0 0.04 0.02 0 0 0 c0 -0.04 0.08 -0.04 0.06 -0.12 c-0.06 0 -0.18 -0.04 -0.24 0.04 c0.12 0.04 -0.1 0 -0.02 0.18 c0.06 0 0.06 -0.08 0.16 -0.04 c0 -0.04 0.02 -0.04 0.04 -0.06 z M25.12 10.44 c0 -0.04 -0.04 -0.06 -0.08 -0.08 c-0.1 0.04 -0.16 0 -0.2 0.06 c0.1 -0.02 0.06 0.12 0.2 0.1 c0.04 -0.06 -0.06 -0.1 0 -0.12 c0.02 0.04 0.04 0.04 0.04 0.1 c0.08 0.04 0.26 -0.04 0.18 -0.14 c0 0.12 -0.06 0.02 -0.14 -0.04 c-0.04 0.06 0.08 0.1 0 0.12 z M25.76 10.36 c0.02 0 0 -0.02 0 0 l0 0 z M27.14 10.62 c0.08 0.08 0.04 -0.08 0 0 l0 0 z M25.560000000000002 10.66 c0.02 0 0.02 0.02 0.04 0.02 c0 -0.02 0 -0.08 -0.04 -0.06 l0 0.04 z M29.8 10.8 c0 -0.04 -0.02 -0.06 -0.04 -0.06 c0 0.04 -0.02 0.08 0.04 0.06 z M29.66 10.8 l0.04 0 l0 -0.04 l-0.04 0 l0 0.04 z M28.28 10.86 c0.02 -0.06 -0.04 -0.04 -0.06 -0.08 c0 0.06 0.02 0.08 0.06 0.08 z M28.46 10.84 c0.02 0.08 0.02 -0.1 0 0 l0 0 z M25.08 12.6 c0.06 -0.02 0 -0.06 0.06 -0.12 c-0.02 0.02 -0.06 0.02 -0.06 -0.02 c0.08 -0.14 0.22 -0.26 0.14 -0.48 c0.06 -0.02 0.06 0 0.12 -0.04 c0.02 -0.18 0.06 -0.4 0.14 -0.5 c-0.06 -0.02 -0.08 -0.22 0.02 -0.24 l0 0.04 c-0.06 0 0.02 0.1 0 0 c0.06 -0.06 0.06 -0.24 0 -0.28 c-0.04 0.02 -0.1 0 -0.18 0.02 c-0.1 0.56 -0.38 0.96 -0.44 1.42 c-0.14 0.26 -0.28 0.6 -0.34 0.96 l-0.06 -0.06 c-0.04 0.1 0.04 0.24 0 0.26 c-0.06 0.02 0 -0.1 -0.08 -0.06 c-0.08 0.48 -0.3 0.8 -0.44 1.26 c0.1 -0.06 0.06 -0.06 0.16 0 c0.16 -0.5 0.44 -0.98 0.6 -1.44 c0.06 0 -0.02 0.12 0.04 0.1 c0 -0.04 0.02 -0.06 0.04 -0.06 c0.02 -0.1 -0.08 -0.06 -0.06 -0.16 c0.06 0.02 0.08 0.06 0.12 0 c-0.06 -0.08 -0.06 -0.26 0.06 -0.16 c0.08 -0.12 -0.08 -0.08 -0.06 -0.22 c0.06 0 0.04 0.06 0.06 0.06 c0.08 -0.08 -0.06 -0.1 0 -0.16 c0.04 0.02 0.06 0.04 0.1 0.06 c0 -0.08 0.04 -0.1 0.06 -0.18 z M24.64 11.02 c-0.34 1.12 -0.48 2.2 -0.86 3.26 c0.08 0.18 -0.14 0.36 -0.02 0.46 c0.48 -1.24 0.98 -2.54 1.34 -3.74 c-0.22 -0.04 -0.32 0.04 -0.46 0.02 z M23.68 12.4 c-0.14 0.22 -0.26 0.54 -0.16 0.74 c0.2 -0.64 0.34 -1.46 0.52 -2.04 l-0.08 0 c-0.1 0.54 -0.26 0.78 -0.28 1.3 z M24.06 11.38 c0.08 -0.02 0.16 -0.24 0.08 -0.26 c-0.04 0.1 -0.06 0.2 -0.08 0.26 z M23.96 11.94 c0.02 -0.2 0.2 -0.44 0.08 -0.54 c0.02 0.2 -0.18 0.38 -0.08 0.54 z M23.88 12.04 c0.1 0.02 0 -0.08 0 0 l0 0 z M23.88 12.16 c0.06 0.02 0.06 -0.12 0 -0.08 l0 0.08 z M23.88 12.24 c0.02 0.1 0.02 -0.08 0 0 l0 0 z M23.76 12.76 c-0.04 0 0 0.02 0 0 l0.02 0 c0.04 -0.1 0.04 -0.24 0.06 -0.34 c-0.08 0.04 -0.1 0.24 -0.08 0.34 z M23.68 13.14 c-0.02 -0.12 0.1 -0.22 0.02 -0.32 c-0.02 0.08 -0.1 0.28 -0.02 0.32 z M23.76 13 c0 0 -0.02 -0.02 0 0 l0 0 z M23.6 13.36 c0 -0.08 0.1 -0.18 0 -0.2 c0 0.06 -0.04 0.12 0 0.2 z M23.1 14.8 c-0.02 0.02 0 0.06 -0.04 0.06 c-0.04 -0.12 -0.08 0.08 0 0 c0.04 0.16 -0.08 0.06 -0.1 0.1 c0.02 0.02 0.06 0.02 0.08 0.04 c-0.12 0.32 -0.24 0.6 -0.2 0.9 c-0.08 0.04 -0.06 0.12 -0.08 0.28 c-0.04 0.04 -0.08 0.2 -0.02 0.3 c-0.04 -0.04 -0.08 -0.02 -0.06 0.04 c0.02 0 0.06 0 0.06 0.02 c0 0.08 -0.1 0.1 -0.12 0.18 c0.02 0.02 0.08 0 0.08 0.04 c-0.08 0 -0.12 0.1 -0.02 0.12 c-0.06 0.04 -0.16 0.16 -0.06 0.22 c-0.04 -0.12 0.14 -0.14 0.06 -0.22 c0 -0.06 0.02 -0.02 0.04 -0.02 c0.14 -0.9 0.28 -1.4 0.38 -2.06 c0.12 -0.6 0.36 -1.04 0.34 -1.62 c-0.08 0.14 -0.08 0.44 -0.16 0.58 c0.1 0.1 -0.14 0.2 -0.04 0.34 c-0.04 0.02 -0.06 -0.08 -0.06 0.02 c0.1 0.14 -0.18 0.52 -0.14 0.68 l0.06 0 z M23.54 13.440000000000001 c0.02 0.02 -0.02 0 0 0 l0 0 z M23.48 13.76 c0.04 -0.12 0.1 -0.16 0.04 -0.26 c0.02 0.1 -0.1 0.18 -0.04 0.26 z M24.68 13.559999999999999 c0.02 -0.02 0.06 -0.04 0 -0.06 c0 0.02 -0.04 0.06 0 0.06 z M24.62 13.74 c-0.06 0.08 0.08 -0.06 0 0 l0 0 z M23.42 13.98 c0.06 0 0.04 -0.08 0.06 -0.12 c-0.06 -0.02 -0.06 0.04 -0.06 0.12 z M23.4 14.04 c0.1 0.04 0 -0.06 0 0 l0 0 z M23.3 14.5 l-0.02 0 c0 0.14 -0.1 0.18 -0.04 0.3 c-0.1 0.08 -0.06 0.3 -0.12 0.42 c0.14 -0.1 0.06 -0.28 0.12 -0.42 c0.08 -0.04 0.04 -0.16 0.06 -0.3 c0.08 -0.04 0.08 -0.26 0.06 -0.36 c-0.02 0.12 -0.06 0.3 -0.06 0.36 z M23.92 14.879999999999999 c0 -0.02 0.04 -0.04 0 -0.06 c0 0.02 -0.04 0.06 0 0.06 z M24.04 14.84 c0.02 0.02 0 0 0 0 l0 0 z M23.9 15.059999999999999 c0.02 0.1 0.02 -0.1 0 0 l0 0 z M23.12 15.3 c0.02 0.02 0 -0.02 0 0 l0 0 z M23.1 15.4 c0.04 0.08 0.04 -0.1 0 0 l0 0 z M23 15.96 c0 -0.1 0.14 -0.28 0.08 -0.42 c-0.02 0.12 -0.12 0.3 -0.08 0.42 z M22.92 16.44 c0.02 -0.14 0.14 -0.28 0.04 -0.4 c-0.02 0.16 -0.08 0.26 -0.04 0.4 z M22.36 18.52 l0 0 c0.1 0 -0.02 0.14 0 0 z M22.38 18.8 c0.02 -0.06 0.06 -0.1 -0.02 -0.12 c0.02 0.04 -0.02 0.12 0.02 0.12 z M22.56 18.8 c0.1 0.02 0 -0.08 0 0 l0 0 z M22.36 18.9 c0 -0.04 0.04 -0.06 0 -0.08 c0 0.04 -0.04 0.06 0 0.08 z M22.56 18.9 c0.06 0.1 0.02 -0.08 0 0 l0 0 z M22.52 19.06 c0.08 0.04 0.08 -0.1 0.04 -0.1 c0 0.06 -0.04 0.06 -0.04 0.1 z M22.34 19.14 c0.06 0 0.1 -0.04 0.1 -0.1 c-0.06 0 -0.1 0.04 -0.1 0.1 z M22.52 19.52 c-0.02 0.14 0.02 -0.1 0 0 l0 0 z M22.5 19.62 c0.04 0.08 0.06 -0.1 0 0 l0 0 z M22.34 19.8 c-0.02 -0.02 0.02 -0.12 -0.02 -0.12 c-0.02 0.06 -0.06 0.12 0.02 0.12 z M22.52 19.92 c0 -0.04 0.04 -0.16 -0.04 -0.14 c0.02 0.04 0 0.12 0.04 0.14 z M22.38 19.96 c-0.02 -0.1 0.06 -0.14 -0.02 -0.16 c0.02 0.08 -0.06 0.14 0.02 0.16 z M22.5 20.2 c0.02 -0.06 0.04 -0.16 0 -0.22 c-0.02 0.02 -0.04 0.18 0 0.22 z M22.36 20.02 c0.02 0.1 0.02 -0.1 0 0 l0 0 z M22.36 20.2 c-0.02 0.1 0.08 0 0 0 c-0.02 -0.06 0.08 -0.08 0 -0.1 c0 0.02 -0.04 0.02 -0.04 0.04 c0.02 0.02 0 0.06 0.04 0.06 z M22.5 20.6 c-0.02 -0.12 0.04 -0.28 -0.02 -0.36 c0.02 0.16 -0.06 0.26 0.02 0.36 z M22.38 20.4 c0 -0.02 0.04 -0.12 -0.02 -0.12 c-0.04 0.04 -0.04 0.12 0.02 0.12 z M22.34 20.52 c-0.02 0.16 0.02 -0.08 0 0 l0 0 z M22.48 20.64 c-0.04 0.24 0.08 0.26 0 0 l0 0 z M27.48 4.4399999999999995 l0 0 c-0.02 0.16 0 -0.08 0 0 z M27.44 4.619999999999999 c0.04 -0.08 0.08 0.08 0 0 l0 0 z M27.14 5 c-0.04 0 -0.02 0.04 0 0.04 l0 -0.04 z M27.4 5.140000000000001 c-0.02 -0.18 0.08 -0.08 0 0 l0 0 z M27.4 5.140000000000001 c0 0.04 -0.04 0.02 0 0 l0 0 z M26.2 5.640000000000001 l0.02 0 c0 0.04 0.02 0.1 -0.02 0.1 l0 -0.1 z M27.28 6.0600000000000005 c0 -0.04 0.04 -0.02 0 0 l0 0 z M26.8 6.18 c0.04 -0.08 0.08 0.08 0 0 l0 0 z M26.78 6.24 c0.08 0.1 -0.06 0.14 0 0 l0 0 z M26.72 6.4 c0.04 0 0.06 0.02 0.06 0.06 c-0.06 0.02 -0.04 -0.02 -0.06 -0.06 z M26.64 6.82 c0 -0.06 0.1 0.02 0 0 l0 0 z M26.58 7.039999999999999 c-0.02 -0.1 0.08 0 0 0 l0 0 z M26.58 7.039999999999999 c0.02 0.1 -0.06 0 0 0 l0 0 z M26.36 7.779999999999999 c0.04 -0.1 0.04 0.1 0 0 l0 0 z M26.240000000000002 8.04 l0.06 0 l0 0.1 l-0.06 0 l0 -0.1 z M26.18 8.34 l0 0 c0.02 0.02 -0.02 -0.02 0 0 z M26.060000000000002 8.82 l0 0 c0.02 0.02 -0.02 -0.02 0 0 z M25.98 9.4 l0.06 0 l0 0.04 c-0.02 0 -0.02 0.02 -0.04 0.02 l-0.04 0 l0 -0.04 c0.02 0 0.02 -0.02 0.02 -0.02 z M26.94 10.4 c-0.16 0.08 -0.12 -0.06 0 0 l0 0 z M27.4 10.6 c-0.06 -0.04 -0.08 -0.1 -0.1 -0.18 c0.06 0.04 0.08 0.1 0.1 0.18 z M28.04 10.44 c0.04 -0.08 0.08 0.08 0 0 l0 0 z M28.2 10.44 c0.1 0.02 0.16 0.04 0.18 0.12 c-0.1 0 -0.12 -0.12 -0.16 0 c-0.08 0.04 -0.04 -0.1 -0.02 -0.12 z M28.98 10.48 c0.08 -0.02 0.02 0.08 0.08 0.08 c-0.04 0.08 -0.06 -0.06 -0.08 -0.08 z M27.68 10.52 l0 0 c0.02 0.02 0 0 0 0 z M27.76 10.5 c0.04 0 0.06 0.02 0.1 0.02 c0 0.04 -0.14 0.04 -0.1 -0.02 z M29.28 10.52 c0 -0.02 0.04 -0.02 0.06 -0.02 l0 0.06 c-0.02 0 -0.04 -0.04 -0.06 -0.04 z M29.42 10.5 c0.06 0 0.06 0.08 0.02 0.12 c-0.06 0 0 -0.08 -0.02 -0.12 z M27.98 10.54 c0.04 -0.08 0.08 0.08 0 0 l0 0 z M28.08 10.54 c0.02 -0.1 0.02 0.1 0 0 l0 0 z M28.46 10.54 c0.02 -0.1 0.02 0.1 0 0 l0 0 z M29.12 10.52 c0.02 0.02 0.04 0.02 0.08 0.02 c0 0.04 -0.08 0.02 -0.08 0.08 c-0.06 -0.02 0.04 -0.06 0 -0.1 z M28.94 10.56 l0 0 c-0.02 -0.02 -0.04 0.02 0 0 z M28.94 10.56 l0 0 c0.02 0.04 0.02 0 0 0 z M29.68 10.6 c0.04 -0.08 0.06 0.08 0 0 l0 0 z M30.04 10.6 c0.04 0 0.06 0.04 0.04 0.08 c-0.04 0 -0.04 -0.04 -0.04 -0.08 z M30.14 10.6 c0.02 0 0.04 0.04 0.04 0.08 c-0.04 0 -0.04 -0.04 -0.04 -0.08 z M31.200000000000003 10.76 c0.02 -0.1 0.02 0.1 0 0 l0 0 z M30.62 10.86 c0.02 -0.1 0.02 0.1 0 0 l0 0 z M30.5 10.9 c0 -0.06 0.1 0.02 0 0 l0 0 z M25.240000000000002 11.84 c0.06 -0.06 0 0.22 0 0 l0 0 z M25 12.16 c0 -0.08 0.1 0.02 0 0 l0 0 z M25.08 12.6 c-0.04 0 -0.06 -0.04 -0.04 -0.04 s0.04 0.02 0.04 0.04 z M24.54 13.4 l0 0 c0.02 0.02 0 0 0 0 z M24.080000000000002 14.620000000000001 l0 0 c0.02 0.02 0 0 0 0 z M22.84 15.780000000000001 c0.02 -0.1 0.02 0.1 0 0 l0 0 z M22.82 16.02 l0 0 c0.02 0.02 -0.02 -0.02 0 0 z M22.76 16.18 c0.04 0 0.02 0.04 0 0 l0 0 z M22.34 18.42 l0 0 c0.02 0.02 -0.02 -0.02 0 0 z M22.32 21.18 l0 0.06 c-0.04 0 -0.06 -0.02 -0.06 -0.06 l0.06 0 z M28.740000000000002 15.66 c-0.06 0.34 0 0.56 -0.32 0.74 c-0.24 0.6 -0.82 0.88 -1.26 1.28 c-0.38 0.08 -0.84 0.34 -1.2 0.08 c-0.22 0.3 -0.24 0.66 -0.34 1.1 c0.82 0.58 2.02 -0.18 2.86 -0.44 c0.46 -0.26 0.96 -0.52 1.48 -0.74 c0.06 -0.08 0.18 -0.1 0.24 -0.16 c0.06 0.18 -0.36 0.28 -0.5 0.42 c0 0.04 0.04 0.02 0.08 0.02 c-0.56 0.5 -1.18 0.8 -1.92 1.06 c0.14 0 0.44 0 0.62 -0.1 c-0.02 0.1 -0.1 0.12 -0.18 0.16 c0 0.04 0.12 -0.02 0.08 0.06 c-0.24 0.08 -0.46 0.32 -0.58 0.24 c-0.1 0.04 -0.02 0.08 -0.06 0.14 c-0.54 0.24 -0.9 0.4 -1.6 0.4 c-0.96 -0.2 -1.08 -1.14 -0.96 -2 c0.36 -1.1 1.14 -2.32 2.24 -2.86 c0.2 -0.1 0.44 -0.06 0.64 -0.06 c0.16 0.02 0.2 0.14 0.34 0.16 c0.04 0.24 0.2 0.36 0.34 0.5 z M27.18 16.02 c0.08 0.02 0.14 -0.14 0.2 -0.06 c-0.34 0.26 -0.64 0.54 -0.9 0.88 c0.66 -0.34 1.26 -0.74 1.64 -1.34 c-0.34 0.14 -0.74 0.24 -0.94 0.52 z M27.060000000000002 16.1 c0.02 0.02 0 -0.02 0 0 l0 0 z M26.900000000000002 19.2 c0.06 0.02 0.14 -0.04 0.12 0.12 c0.1 -0.06 0.16 -0.1 0.26 0 c0.04 -0.04 -0.04 -0.12 0.04 -0.12 c0.14 0 0.38 -0.1 0.5 -0.18 c-0.3 0.16 -0.68 0.06 -0.92 0.18 z M30.28 17.48 l0 0 c0.04 0 0 -0.02 0 0 z M30.28 17.48 c0 0.04 -0.04 0.02 0 0 l0 0 z M28.42 19.04 c0.04 -0.08 0.04 0.1 0 0 l0 0 z M34.44 17.58 c0 0.02 0 0.06 0.04 0.06 c0.02 0 0.02 -0.02 0.04 -0.02 c0.02 -0.06 -0.04 -0.04 -0.08 -0.04 c0.54 -0.5 1.12 -0.9 1.66 -1.38 c0.02 0.04 0.04 0.08 0.1 0.08 c-0.1 0.34 -0.22 0.6 -0.52 0.74 c-0.04 0.08 0.04 0.04 0.08 0.04 c-0.08 0.12 -0.2 0.28 -0.3 0.24 c-0.06 0.02 0.02 0.04 0 0.1 c-0.22 0.08 -0.34 0.14 -0.44 0.36 c-0.28 0.02 -0.5 0.3 -0.74 0.44 c0.18 0.1 0.24 -0.22 0.48 -0.22 c0.02 0.06 -0.04 0.04 -0.04 0.1 c0.06 0 0.06 -0.08 0.16 -0.06 c0 -0.08 -0.06 -0.08 -0.02 -0.16 c0.18 0.08 0.24 -0.16 0.42 -0.16 l0 0.14 c-0.12 0 -0.2 0.16 -0.3 0.1 c0 0.04 0.02 0.08 0.04 0.08 c-0.46 0.48 -1.16 0.84 -1.66 1.24 c-0.02 0 -0.02 -0.04 -0.04 -0.06 c-0.78 0.72 -1.78 1.22 -2.52 1.98 c0.06 0.9 0.42 1.88 0.28 2.9 c-0.08 0.34 -0.28 0.76 -0.5 1.1 c-0.42 0.36 -1.1 0.84 -1.84 0.58 c-0.54 -0.32 -0.8 -0.92 -0.98 -1.58 c-0.04 -0.28 -0.08 -0.48 0 -0.72 c0.46 -1.2 1.36 -2.04 2.24 -2.92 c0.02 -0.22 -0.04 -0.42 -0.02 -0.66 l0.08 0 c-0.1 -0.7 0.04 -1.42 0.06 -2.36 c0.32 -0.68 0.46 -1.38 1.06 -1.78 c0.38 0.16 0.82 0.36 0.68 0.82 c-0.26 -0.02 -0.38 0.1 -0.5 0.2 c-0.58 1.18 -0.74 2.06 -0.6 3.38 c0.8 -0.52 1.62 -1.2 2.42 -1.64 c0 -0.04 -0.04 -0.04 -0.02 -0.08 c0.24 -0.08 0.3 -0.32 0.62 -0.34 c0 -0.04 -0.04 -0.06 0 -0.08 c0.08 0 0 0.02 0.02 0.08 c0.24 -0.18 0.32 -0.4 0.64 -0.5 z M35.88 16.5 c0.02 0 0 -0.02 0 0 l0 0 z M35.82 16.64 c-0.02 -0.08 0.04 -0.08 0.04 -0.12 c-0.08 -0.02 -0.12 0.1 -0.04 0.12 z M35.68 16.68 c-0.06 0.08 0.08 -0.06 0 0 l0 0 z M35.58 16.759999999999998 c-0.04 0.02 0 0.02 0 0 c0.02 -0.02 0 -0.04 0 0 z M35.74 16.82 c0.06 0.02 0.12 -0.06 0.06 -0.06 c-0.02 0.04 -0.08 0.02 -0.06 0.06 z M35.58 16.92 c0 0.04 0 0.06 0.02 0.08 c-0.14 0.04 -0.18 0.1 -0.26 0.22 c0.2 -0.04 0.3 -0.26 0.36 -0.32 c-0.02 -0.06 -0.08 0.02 -0.12 0.02 z M35.24 17.02 c-0.1 0.06 -0.2 0.12 -0.26 0.22 c0.1 -0.06 0.2 -0.12 0.26 -0.22 c0.04 0.02 0.1 -0.06 0.04 -0.08 c0 0.04 -0.04 0.04 -0.04 0.08 z M35.28 17.259999999999998 c0.04 0.1 0.04 -0.1 0 0 l0 0 z M35.04 17.48 c0.04 -0.06 0.1 0.02 0.18 0 c-0.08 -0.1 0 -0.1 0.02 -0.2 c-0.08 0.04 -0.26 0.1 -0.2 0.2 z M34.620000000000005 17.5 c-0.04 0.02 0 0.02 0 0 c0.08 -0.02 0.12 -0.08 0.18 -0.12 c-0.04 -0.04 -0.16 0.06 -0.18 0.12 z M34.86 17.54 c0.06 0.02 0.04 0.1 0.12 0.08 c0 -0.08 -0.06 -0.08 -0.1 -0.12 c0 0.02 -0.02 0.02 -0.02 0.04 z M34.52 17.82 c0.16 0.02 0.22 -0.24 0.34 -0.1 c0.02 -0.34 -0.3 0 -0.34 0.1 z M34.28 17.740000000000002 c0.04 0 0.06 -0.02 0.08 -0.04 c-0.06 0 -0.08 0.02 -0.08 0.04 z M34.2 17.78 c-0.08 -0.06 -0.06 0.1 0 0 l0 0 z M34.32 17.98 c-0.1 0 -0.16 0.06 -0.18 0.14 c-0.26 0.02 -0.4 0.16 -0.54 0.3 c0.08 0.04 0.1 -0.02 0.16 0.04 c0.04 -0.16 0.18 -0.24 0.36 -0.28 c-0.2 0.44 -0.66 0.5 -0.94 0.88 c0.3 -0.18 0.62 -0.34 0.86 -0.6 c-0.06 -0.04 -0.08 0.1 -0.1 0.02 c0.08 -0.08 0.36 -0.08 0.32 -0.22 c-0.02 0.1 -0.1 0.02 -0.1 -0.04 c0.06 -0.06 0.22 -0.14 0.16 -0.24 c0.1 0 0.14 -0.12 0.2 -0.08 c-0.02 -0.14 -0.16 -0.02 -0.22 0 c0 0.04 0.02 0.04 0.02 0.08 z M34.4 18 c0.02 0.1 0.02 -0.1 0 0 l0 0 z M34.9 18 c0.04 0.1 0.04 -0.1 0 0 l0 0 z M34.52 18.22 c0.02 0.02 -0.02 0 0 0 l0 0 z M33.42 18.34 c0.08 0 0.1 -0.08 0.14 -0.12 c-0.08 0.02 -0.14 0.04 -0.14 0.12 z M33.9 18.36 l0.04 0 l0 -0.04 l-0.04 0 l0 0.04 z M33.36 18.38 c0.02 0.02 0 0 0 0 l0 0 z M33.24 18.44 c0.1 0.02 0.02 -0.08 0 0 l0 0 z M33.46 18.54 c0.08 0 0.14 -0.02 0.12 -0.1 c-0.06 0 -0.12 0.02 -0.12 0.1 z M33.660000000000004 18.5 c0.02 0.08 0.06 -0.08 0 0 l0 0 z M31.5 20.22 c0.12 -0.02 0.12 -0.18 0.22 -0.22 c0.02 0.04 -0.08 0.08 0 0.1 c0 -0.06 0.08 -0.02 0.06 -0.1 l-0.06 0 c0.04 -0.08 -0.1 -0.18 0.06 -0.2 c0.04 0.04 0 0.08 -0.02 0.12 c0.08 -0.04 0.12 -0.04 0.08 0.06 c0.2 -0.1 0.34 -0.28 0.54 -0.36 c0 -0.08 -0.12 -0.06 -0.14 -0.12 c0.04 -0.06 0.08 -0.12 0.16 -0.12 c0.02 0.04 -0.12 0.08 -0.04 0.14 c0.26 0.04 0.34 -0.24 0.58 -0.3 c-0.04 -0.08 0.06 -0.14 0.06 -0.26 c0.12 -0.02 0.4 -0.24 0.44 -0.34 c0 0.06 -0.06 0.06 -0.08 0 c0 -0.06 0.1 -0.02 0.08 -0.08 c-0.16 0.08 -0.34 0.12 -0.4 0.28 c0 0.04 0.06 0 0.06 0.04 c-0.04 0.02 -0.06 0.06 -0.14 0.06 c-0.12 -0.1 -0.5 0.18 -0.6 0.34 c0.04 0 0.12 -0.04 0.12 0.02 c-0.04 0 -0.04 0.04 -0.08 0.04 c-0.04 -0.02 -0.08 -0.06 -0.16 -0.04 c-0.06 0.04 -0.08 0.24 -0.14 0.18 c0 -0.04 0.06 -0.02 0.04 -0.08 c-0.18 0.1 -0.58 0.3 -0.48 0.48 c-0.32 -0.12 -0.48 0.2 -0.48 0.5 c0.1 0.02 0.04 -0.12 0.14 -0.1 c0 0.06 -0.04 0.08 0.04 0.1 c0.04 -0.04 0.06 -0.1 0.14 -0.1 l0 -0.04 z M33.52 18.58 c-0.06 0.08 0.08 -0.06 0 0 l0 0 z M33.68 18.6 c-0.06 0.08 0.08 -0.06 0 0 l0 0 z M33.04 19.04 c0 0.02 -0.02 -0.02 0 0 l0 0 z M33.06 19.1 c-0.06 0.08 0.08 -0.04 0 0 l0 0 z M30.080000000000002 20.5 c0.02 -0.12 0 -0.34 -0.04 -0.46 c0.02 0.18 -0.02 0.34 0.04 0.46 z M31.02 20.18 l0.04 0 l0 -0.04 l-0.04 0 l0 0.04 z M30.8 20.28 c-0.02 0.18 0.14 0.18 0.02 0.32 c0.06 -0.02 0.08 0 0.08 0.06 c0.14 -0.06 0.34 -0.2 0.36 -0.3 c-0.04 0.04 -0.06 0.08 -0.12 0.1 c0 -0.12 0 -0.16 -0.06 -0.22 c-0.04 0.06 0.04 0.1 -0.02 0.14 c-0.02 0 -0.04 -0.1 -0.06 -0.02 c0.04 0.02 -0.02 0.14 -0.06 0.14 c0 -0.06 -0.06 -0.08 -0.06 -0.14 c0.06 -0.02 0.08 -0.12 0.12 -0.18 c-0.1 0.02 -0.12 0.08 -0.2 0.1 z M30.94 20.36 c0.02 0.02 0 -0.02 0 0 l0 0 z M30.84 20.72 c0.02 0.02 0 -0.02 0 0 l0 0 z M29.84 20.94 c-0.06 -0.02 -0.08 0.02 -0.1 0.06 c0.06 0 0.08 -0.04 0.1 -0.06 c0.06 0 0.08 -0.04 0.1 -0.08 c-0.06 0 -0.08 0.04 -0.1 0.08 z M29.64 21.14 c0 -0.02 0.06 -0.02 0.06 -0.06 l-0.08 0 c0 0.02 0 0.06 0.02 0.06 z M29.26 21.42 l0 0.04 l0.08 0 l0 -0.08 l-0.06 0 c0 0.02 0 0.04 -0.02 0.04 z M29 21.8 l0.04 0 c0 0.02 0.02 0.02 0.04 0.02 c-0.02 -0.12 0.1 -0.14 0.12 -0.24 c-0.1 0.04 -0.18 0.1 -0.2 0.22 z M28.48 24.8 c0.36 0.28 0.92 -0.04 1.26 -0.2 c0.76 -0.56 0.86 -1.96 0.58 -2.98 c0 0 0 -0.02 -0.02 -0.02 c-0.78 0.8 -1.8 1.66 -1.82 3.2 z M28.98 21.84 c-0.06 0.08 0.08 -0.06 0 0 l0 0 z M28.66 22.2 c0.12 -0.06 0.28 -0.2 0.24 -0.34 c-0.06 0.14 -0.2 0.18 -0.24 0.34 z M28.62 22.28 c0.02 0.02 -0.02 -0.02 0 0 l0 0 z M28.54 22.34 c0.02 0.02 0 0 0 0 l0 0 z M28.400000000000002 22.58 c0.08 -0.02 0.12 -0.08 0.14 -0.18 c-0.1 0 -0.1 0.12 -0.14 0.18 z M28.3 22.66 c0.12 0.04 -0.02 0.04 -0.02 0.12 c0.1 0 0.1 -0.08 0.12 -0.16 c-0.06 -0.02 -0.1 0 -0.1 0.04 z M28.240000000000002 22.88 c0.04 0 0.06 -0.02 0.06 -0.06 c-0.04 0.02 -0.08 0 -0.06 0.06 z M28.12 23.1 c0.06 0.02 0.06 -0.14 0.02 -0.12 c0.02 0.06 -0.04 0.06 -0.02 0.12 z M30.200000000000003 24.58 c0.02 0.02 -0.02 0 0 0 l0 0 z M30.560000000000002 25.08 c0.02 0.02 -0.02 0 0 0 l0 0 z M35.82 17.259999999999998 c-0.02 0.08 -0.1 0.1 -0.14 0.14 c-0.04 -0.12 0.08 -0.1 0.14 -0.14 z M35.68 17.46 c-0.04 0.16 -0.18 0.22 -0.34 0.26 c-0.08 -0.18 0.18 -0.22 0.34 -0.26 z M34.96 17.82 l0 0 s-0.02 -0.02 0 0 z M34.76 17.96 l0 0 c0.02 0.02 -0.02 -0.02 0 0 z M33.2 18.74 c0.08 -0.04 -0.06 0.08 0 0 l0 0 z M32.96 19.04 c0 0.08 -0.22 0.08 -0.14 0.16 c0 0.06 -0.12 0 -0.08 0.08 c-0.12 -0.1 0.12 -0.2 0.22 -0.24 z M32.64 19.1 c0.06 -0.08 0.04 0.08 0 0 l0 0 z M32.24 19.32 l0.04 0 l0 0.06 l-0.04 0 l0 -0.06 z M32 19.54 c-0.04 0.12 -0.16 0.18 -0.26 0.24 c0.06 -0.1 0.16 -0.18 0.26 -0.24 z M32.160000000000004 19.56 l0 0 c0.02 0.02 0 0 0 0 z M32.08 19.74 c-0.02 0.02 -0.04 0.04 -0.08 0.04 c-0.02 -0.06 0.04 -0.04 0.08 -0.04 z M31.560000000000002 19.92 l0 0 c0.02 0.02 0 0 0 0 z M31.44 19.94 c0.12 -0.12 -0.08 0.1 0 0 l0 0 z M31.560000000000002 19.98 c0.02 -0.02 0.02 0 0.04 0.02 l0 0.04 c-0.06 -0.04 -0.06 0.02 -0.1 -0.02 c0 -0.04 0.06 0 0.06 -0.04 z M31.28 20.12 l0 -0.08 c0.04 0 0.06 0.04 0.04 0.1 c-0.02 0 -0.02 -0.02 -0.04 -0.02 z M31.5 20.22 c-0.06 -0.02 -0.16 -0.1 -0.08 -0.16 c0.06 0.02 0.08 0.08 0.08 0.16 z M31.28 20.12 c0 0.02 -0.02 0.04 -0.02 0.06 c-0.06 0.02 -0.04 -0.1 0.02 -0.06 z"></path></g>
			</g>
		</svg>
	